<?xml version="1.0" standalone="no"?><!DOCTYPE svg PUBLIC "-//W3C//DTD SVG 1.1//EN" "http://www.w3.org/Graphics/SVG/1.1/DTD/svg11.dtd"><svg class="icon" width="200px" height="173.85px" viewBox="0 0 1178 1024" version="1.1" xmlns="http://www.w3.org/2000/svg"><path d="M613.41047 712.481004v-4.411439c0-1.544003-2.382177-2.073376-2.779206-0.397029s-0.661716 2.51452-0.926402 3.749722c-44.114381-7.14653-88.758135 11.07271-122.726208 38.600084-16.057635 12.969628-24.792282 28.012632-33.085786 46.628901A635.732347 635.732347 0 0 1 417.674961 864.719733c0-0.352915-0.573487-0.617601-0.794059 0-1.279317 2.470405-2.338062 4.984925-3.52915 7.499445 0 0 0 0.352915-0.308801 0.573487s0 0 0 0.220572a288.68451 288.68451 0 0 0-20.821988 61.760133 502.109887 502.109887 0 0 0-5.823098 72.788729c0 6.881843 5.558412 11.557968 13.234314 14.160717-3.970294-44.511411-2.470405-100.49256 36.703165-129.828624 7.675902-5.690755 19.322099-12.749056 26.115714-2.029262 7.940589 12.660827-5.205497 40.497002-8.822876 52.452-4.411438 15.440033-9.705164 30.880067-13.719573 46.3201a222.204138 222.204138 0 0 0-4.940811 32.468184 23.071821 23.071821 0 0 0 14.29306-11.028595c5.558412-86.420073 75.788507-107.462633 99.0809-154.400334a84.170239 84.170239 0 0 0 7.631788-25.409884c3.088007-20.777874 16.41055-26.468629 29.20372-41.776319 15.748834-19.189756 28.012632-45.040783 28.321433-70.58301a3.617379 3.617379 0 0 0-0.088229-5.426068z" fill="#C9293E"/><path d="M462.539287 889.86493c-6.793615-10.719795-18.439811-3.661494-26.115714 2.029262-39.17357 29.336063-40.673459 85.317213-36.703165 129.828624 1.235203 0.397029 2.646863 0.573487 3.92618 0.882287 0-22.630678 1.146974-60.92196 3.132121-69.303693 2.999778-12.616713 8.822876-37.629567 24.880511-37.673681 7.45533 0 4.146752 5.867213 3.661493 7.85236-5.73487 24.395253-14.513631 75.259134-15.263575 100.404331a57.348696 57.348696 0 0 0 15.087118-2.779206 222.204138 222.204138 0 0 1 4.940811-32.468184c4.014409-15.616491 9.131677-30.880067 13.719572-46.3201 3.52915-11.954997 16.675236-39.791172 8.734648-52.452z" fill="#D43651"/><path d="M431.65922 915.627729c-16.145864 0-22.057191 25.056969-24.880511 37.673681-1.985147 8.381732-2.911549 46.673015-3.132121 69.303693a58.760356 58.760356 0 0 0 16.41055 1.279317c0.749944-25.145197 9.528706-76.009079 15.263575-100.404331 0.485258-1.985147 3.793837-7.85236-3.661493-7.85236z" fill="#D94366"/><path d="M1078.111362 177.461789C1054.598397 152.051905 1045.819635 110.363815 996.985015 95.320811c-17.381066-15.263576-35.291505-54.040117-84.390812-48.12879-38.555969-21.307246-53.643088-21.263132-127.358218-19.366213-33.085786-27.615603-102.654165-39.702943-141.16602-12.572599-20.689645-1.632232-55.58412-11.77854-90.346252-9.661049-29.380178 1.764575-60.436702 14.557746-64.804026 25.851027-29.777207-8.55819-35.909106-7.322987-71.332955 1.279317-13.807801 3.396807-63.304137 21.263132-77.111938 38.908884-68.112605-1.764575-120.873404 15.837063-155.635537 53.86366-92.066714 48.525819-75.788507 76.670794-117.873626 136.754581-25.542227 36.394364-50.290395 67.009745-37.364881 120.035231C7.234759 399.40124-8.822876 449.603406 16.01352 485.336055c-27.174459 34.100417-12.08734 82.405664-9.484592 115.138535 1.588118 19.807357 2.073376 46.231871 35.291505 60.789617-2.955664 39.702943 22.057191 73.979817 47.290617 110.285953 17.645752 52.540228 62.201277 45.393698 115.403221 27.924403 13.234314-4.411438 67.980261-20.380844 113.991561-67.406774 44.114381 13.675458 147.694948 5.823098 239.364632-8.822876 80.199945-12.660827 154.400334 47.687646 175.134094 57.348695 52.319656 24.26291 110.815326 45.834842 147.51849 25.762799 46.761244-7.014187 63.745281-35.64442 70.58301-64.318768 8.822876-35.953221 28.89492-26.468629 37.011966-60.304359a83.817324 83.817324 0 0 0-16.939922-74.994448c43.849695 3.22035 111.653499-8.028817 148.753693-41.511633 12.528484-11.293282 35.291505-22.321877 40.629345-38.644198 11.249167-34.629789 12.528484-51.525597 17.028151-78.567713 3.352693-19.895586-5.426069-38.688312-5.778984-56.642865-0.308801-15.925292 8.822876-38.511855 6.528929-53.201944-5.33784-33.615158-27.08623-79.405886-54.790062-89.508079-1.146974-26.998001-25.101083-49.231649-45.437812-71.200611z" fill="#E64E5A"/><path d="M1056.936459 177.461789c-6.881843-7.85236-27.836175-64.892255-66.171572-71.28884C967.73718 76.131055 939.636319 52.61809 908.756252 59.896963c-43.364437-20.116158-83.508524-28.453776-127.931705-20.954331-31.894698-20.998445-52.937257-28.806691-74.244504-30.880067-20.380844-2.029262-41.291061 5.249611-62.201277 13.807801-30.880067-6.837729-78.479484-21.792504-124.314326 3.043892-20.33673 11.07271-46.761244 23.071821-45.526042 51.04034 1.279317 28.983148 46.364215 32.8211 56.510523 47.819989 19.983815 29.60075 7.543559 82.67035 50.466852 96.478151 26.468629 8.425847 43.49678-7.543559 53.996002-30.394808a112.932816 112.932816 0 0 0 9.837507-46.496558c0-11.116824-19.057413-60.480817 3.92618-45.923071 13.763687 8.822876 8.249389 40.98226 8.028818 55.892921-0.397029 25.145197 3.308579 40.188201-13.234315 59.951444-9.484592 11.513853-22.057191 22.057191-22.05719 38.423626 0.529373 36.835508 37.585453 30.571266 61.760133 27.880289a91.360883 91.360883 0 0 1 74.994448 22.321877 69.744837 69.744837 0 0 0 16.984037 11.602082c10.631566 4.676124 24.086452 7.014187 34.894476 1.323432 14.778318-7.720017 21.35136-26.115714 17.645752-42.746836-5.999556-27.306802-31.100639-51.260911-15.30769-78.876513 3.176235-5.514298 10.631566-3.617379 9.528706 2.602748-3.970294 22.763021 31.982926 56.775209 19.101527 79.758801-8.161161 14.513631-3.882066 35.64442 5.558412 50.555081 10.013965 15.881177 31.894698 15.660605 47.070045 8.514076 24.086452-11.337396 35.291505-40.055858 28.586119-65.156941a75.700278 75.700278 0 0 0-19.895586-32.732871c1.235203 1.279317-20.998445-18.351583-20.027929-16.41055-15.219462-30.880067 23.954109 0.838173 30.262465 7.896474 20.821988 23.248279 19.763243 50.95211 27.527374 80.332288 3.396807 12.704942 14.645975 20.116158 26.909773 25.233427 21.395475 8.822876 32.8211-6.528928 44.114381-18.21924 18.969184-19.895586-2.11749-62.642421 30.174237-89.375736 11.116824-9.26402 49.628679-9.528706 15.043004-48.746391z" fill="#EA5E72"/><path d="M1165.634294 414.444244c0-40.717574-11.028595-72.082899-14.29306-122.373293-0.970516-15.925292-23.998223-32.953443-33.482815-38.291283-12.307912-6.970072-2.911549-32.115269-16.851693-35.820877-1.588118-0.441144-22.057191-4.411438-11.557968 15.792948 6.396585 12.307912 0.441144 30.041894-11.337396 28.453776-7.014187-0.970516-13.763687-16.234092-27.439145-14.204831-6.705386 1.014631-15.30769 17.072266-18.439812 37.232538-3.573265 23.204165-10.808023 53.334287-13.984259 60.348473-4.411438 9.793393-32.335841 29.468407-42.482149 25.895142-13.543115-4.720239-17.645752-7.587674-27.08623-11.513853-13.234314-5.426069-28.89492 4.411438-35.95322 18.572154-8.469961 17.248723-11.249167 22.365991-21.086675 14.690089-4.411438-3.264464 1.455775-20.248501-2.205719-30.880067-3.132121-8.822876-16.895808-8.469961-19.366213-8.822876-22.542449-5.33784-29.556635-17.645752-40.320544-21.395475s-23.86588 7.278873-32.512299 9.881621c-13.454886 4.014409-15.748834 38.820655-26.77743 39.702943-13.807801 0.838173-11.425625-26.071599-9.440477-42.041005 3.52915-28.409661-19.675014-26.159828-32.556414-28.718462-26.468629-5.381955-60.260245-23.909995-73.229872-9.352249-5.249611 5.911327-8.822876 17.381066-14.822432 26.468629a132.91663 132.91663 0 0 1-18.395697 21.174903c-7.014187 7.322987-14.337174-2.558634-12.969628-13.940145 1.279317-10.36688 8.822876-25.939256 9.705163-30.659494 2.999778-17.336952-12.572599-21.483704-15.792948-35.291505-6.352471-27.130344-22.674792-25.012854-32.512299-30.880067-19.366213-11.557968-30.880067 2.382177-45.967185 3.705608-15.881177 1.41166-33.615158 7.984703-31.982927-4.411438 1.41166-11.07271 1.499889-23.909995 12.8814-24.307024 37.717796-1.41166 31.762354-10.322765 27.174459-28.806691-5.911327-23.777651-8.249389-40.717574-13.543115-46.893587-8.381732-9.837507-26.115714-6.308357-38.247169-3.793837s-8.381732-21.792504-11.999112-29.688979c-6.925958-15.219462-11.954997-20.910217-6.04367-39.702943 4.411438-14.160716 0.882288-27.174459-5.867212-30.262465-10.808023-4.940811-74.994448 13.234314-97.051639 31.938812-15.616491 13.234314 8.822876 11.910883 6.4407 36.614936-1.455775 13.807801 11.690311 21.219017 13.675458 36.041449 3.132121 23.027707-13.234314 22.851249-16.939923 43.276208C356.797115 216.23833 397.558803 284.747964 423.498059 305.128808a51.128568 51.128568 0 0 0 34.320989 12.572598c9.484592 0 24.96874-11.337396 28.89492-1.01463 4.808468 12.572599-34.056302 27.218573-14.513632 47.908218 12.837285 13.587229 33.703387 41.467518 52.937258 47.422959 14.204831 4.411438 21.571932-3.617379 34.365103-5.426069 25.542227-3.617379 38.114825 12.925514 60.127901 19.145642 11.469739 3.22035 23.601194 1.544003 35.291505 3.132121a150.73884 150.73884 0 0 1 59.730872 22.895364c20.160272 12.219684 39.702943 26.468629 62.245392 34.144531a174.031234 174.031234 0 0 0 28.056746 5.778984c29.60075 4.411438 45.040783 8.293504 68.509634 28.850805 45.173126 39.702943 69.347807-1.235203 112.226986-26.468629 41.511633-24.351138 78.655942-12.704942 122.329179-20.336729a57.701611 57.701611 0 0 0 42.129234-27.571489c2.073376-2.955664 15.528262-19.101527 15.484148-31.71824z" fill="#EA5E72"/><path d="M939.151061 635.324951c2.558634-61.186647-17.204609-95.15472-74.420961-108.080234 1.676346-0.397029-17.204609-7.278873-18.92507-7.631788-35.864992-7.190644-62.73065-0.617601-95.948779-17.645752-21.616047-11.028595-39.305914-29.247835-61.142532-39.438257a127.931705 127.931705 0 0 0-57.348696-10.631566c-22.057191 0.882288-26.468629 2.205719-47.775874-9.881621a178.2221 178.2221 0 0 0-20.601416-10.719795c-16.41055-7.322987-48.261133-4.852582-65.377513-6.970072-26.821544-3.352693-49.54045-12.925514-50.64331-41.158718-0.794059-19.410328-23.115936-14.866546-27.880289-22.630677-5.426069-8.822876 5.161383-19.586785 0-28.409662-6.131899-10.36688-26.027485-13.234314-32.644642-23.55708-18.52804-28.718462-49.761022-47.334731-61.760134-41.246946-32.247613 16.587007-28.233204 6.925958-32.688756 0.264686-7.278873-10.984481 25.806913-23.204165 39.702943-37.144309 8.337618-8.469961 3.617379-20.380844 0-27.615602-16.587007-34.320989 17.248723-45.481927 13.234314-76.935481-1.41166-11.910883-3.485036-29.777207-10.67568-37.05608S311.888675 78.733804 301.654139 79.483748a190.397669 190.397669 0 0 0-81.479263 27.174459c-10.36688 6.4407-1.544003 13.454886 4.102638 16.587007 45.173126 25.321655 6.7495 58.672127 8.514075 88.890478s-4.852582 41.820433-12.616713 30.880067a151.621128 151.621128 0 0 1-9.484591-18.925069c-7.764131-15.484148 4.896696-38.247168 9.043448-52.937258 4.411438-15.572377 4.411438-24.218795-11.116824-36.217907-8.514076-6.617157-30.218351 3.352693-38.688313 7.85236-49.761022 26.468629-57.657496 64.230539-77.773654 99.169129-17.425181 30.174237-71.024154 92.6402-48.525819 130.79914 11.734425 20.027929 54.834176 31.806469 73.715131 13.234314 11.293282-11.160938 11.557968-34.762132 14.248945-49.187535C137.592755 304.467092 150.915298 266.308152 179.104388 259.690995c17.425181-4.146752 13.851916 12.881399-12.616713 35.688535-11.822654 10.102193-7.940589 26.203942-6.264243 41.202832 1.146974 9.661049 6.352471 18.880955 7.808246 28.630233 10.940367 29.997779-35.556191 72.127013-79.052971 45.790728-16.763465-6.396585-53.687202-16.454664-63.921738 3.440921-14.734203 28.18909-4.940811 49.363993 6.573042 70.891811-24.704053 20.160272-26.998001 93.125459-1.235202 103.492338 8.514076 3.396807 39.967629-0.441144 49.408107-18.704498 5.514298-10.67568 26.468629-2.073376 24.704053 7.984703-3.308579 17.292837-19.410328 20.866102-27.174459 22.763021a74.994448 74.994448 0 0 0-35.291505 16.587008 9.616935 9.616935 0 0 0-2.558634 9.705163c2.82332 6.793615 6.087785 18.836841 10.543337 31.541783-4.411438 35.291505 13.89603 60.61316 36.129678 56.466408 10.058079-1.852804 16.631122-14.690089 23.645309-21.130789 16.498779-15.219462-0.70583-16.851694 28.49789-32.115269 7.675902-3.970294 16.675236-3.52915 24.527596-8.24939a34.144531 34.144531 0 0 0 17.248723-19.277984c7.764131-21.527818-7.190644-28.056746 22.057191-23.998223 39.350028 5.514298 57.348696-7.675902 100.316102-12.925514 20.116158-2.470405 16.675236 17.11638 2.382177 23.86588-18.92507 8.822876-42.526263 27.130344-60.877846 17.292837-17.645752-9.484592-27.79206-4.146752-31.762355-2.867434-8.822876 2.690977-17.028151 19.410328-23.424736 25.101083-13.543115 11.954997-26.468629 8.381732-41.996891 17.248723-10.984481 6.220128-2.205719 20.601416-31.277096 35.291505-22.630678 11.557968-34.585675 32.203498-16.454664 51.878512a107.771433 107.771433 0 0 0 27.042115 23.380622c6.661272 3.837951 26.909773 6.7495 35.953221 6.352471 25.542227-1.146974 34.762132-18.483926 49.143421-39.041228 12.352027-17.645752 22.057191-46.275986 44.114381-54.260688a21.130789 21.130789 0 0 1 11.028595-1.941033 176.457525 176.457525 0 0 0 66.877402-6.04367c27.571488-7.896474 51.437368-24.704053 76.582566-20.645531 47.158273 7.587674 85.140756 2.867435 124.270212 12.307913 49.408107 11.954997 84.346697 17.204609 127.358218 17.028151 28.233204 0 55.937035 13.499001 87.787619 33.615158 35.776763 22.586563 60.833732 53.731316 79.979373 58.451555 14.954775 3.705608 51.260911-1.896918 64.230539-7.411216 65.951-28.233204 42.967407-85.581899 45.746613-151.753471z m-82.493893 44.820211c-8.822876 10.234536-18.836841 34.673904-29.20372 26.159828-15.30769-12.660827-13.631344-41.952777-26.909773-60.304359-27.174459-37.673682-44.114381-20.821988-65.862771-31.497668-37.850139-18.52804-74.288618-38.247168-114.697391-47.555303-72.921072-16.763465-149.371295-23.16005-219.777847-49.849251-46.3201-17.689867-90.831511-44.996669-115.932594-89.11105-13.234314-23.16005-19.586785-48.966963-24.218795-74.994448-2.426291-15.440033-11.77854-36.791394-15.219461-52.054969-2.602748-11.77854 10.322765-19.9397 22.586563-15.175348s18.175125 21.263132 19.366213 36.879623c1.676346 22.763021-0.70583 49.805136 24.130567 71.774098 13.234314 11.690311 24.351138 10.058079 37.232537 25.321655s10.543337 24.042338 18.660384 40.011744c22.542449 44.334953 95.022377 58.186869 137.725098 68.906663 31.630011 7.940589 61.760134 8.381732 93.74306 11.381511 27.042116 2.51452 46.584787 13.89603 71.59764 20.910216 20.910217 5.867213 41.070489 5.73487 60.966075 16.542893 26.821544 14.513631 74.332732 41.202832 109.580123 49.849251 13.234314 5.33784 26.468629 5.426069 28.012632 27.571488 0.617601 6.617157-3.132121 15.131233-11.77854 25.056969z" fill="#EA5E72"/><path d="M597.573407 279.718924c-12.969628-21.219017-23.777651-23.645308-39.041227-30.880067-8.381732-4.014409-34.629789 10.984481-44.379067 6.793615-3.705608-1.588118-25.101083-5.73487-27.703832-10.013964-5.955441-9.749278 3.264464-38.688312 16.101749-44.864326 24.96874-11.954997 13.234314-37.188423 6.131899-49.805136-4.940811-8.822876-36.526708-2.338062-38.688312-5.73487-13.631344-21.660161-0.882288-52.540228-29.20372-64.451111-14.072488-5.911327-46.893587 8.293504-51.437369 24.615825-3.705608 13.234314 5.999556 27.527374 7.764131 31.277096a156.120795 156.120795 0 0 1 15.175348 49.981594c1.720461 11.954997-14.734203 24.351138-6.087785 47.246502a267.553722 267.553722 0 0 0 30.880067 56.819323c12.749056 17.645752 33.615158 7.234759 45.481927 10.67568 35.600306 10.278651 1.323431 33.659273 12.528484 64.362882 8.822876 23.689423 34.894476 27.836175 58.760356 25.586342s34.982704-15.30769 35.556191-15.969406c13.234314-14.513631 11.513853-37.673682 14.778318-62.02482a53.731316 53.731316 0 0 0-6.617158-33.615159zM1091.78682 279.851267c-4.676124-7.367102-26.468629-13.234314-31.541783-7.85236-31.232982 33.747502-1.764575 112.403443-66.700944 111.785842-24.395253-0.264686-44.864326-27.218573-68.421405-10.27865-5.955441 4.411438-16.145864 29.468407-23.645309 33.703387s-16.851694-2.029262-16.984036-17.954553c-0.264686-27.218573-28.983148-22.851249-41.555747-30.527152-18.660383-11.38151-34.188645-4.764353-49.408107 12.749056-7.631788 8.822876-15.70472 22.498334-26.468629 22.057191-27.527374-1.146974-15.484148-37.850139-24.351138-47.952333-14.822432-16.895808-25.145197-3.661494-41.026375-12.352026-24.924625-13.631344-28.542005-31.982926-44.555525-11.734426-12.175569 15.30769-23.424736 42.923293-36.438479 57.084009-16.234092 17.645752 27.615603 9.26402 46.71713 11.160939 46.452443 4.411438 64.098196 47.819989 106.756802 56.466408 27.439145 5.514298 50.334509-3.882066 78.126569 9.26402 17.645752 8.425847 32.335841 17.645752 52.452 19.586785 43.717352 3.837951 79.405886-28.453776 119.417629-39.702943 33.1299-9.528706 73.09753-4.411438 88.80225-40.585231 13.763687-31.497668 5.33784-73.273987-21.174903-114.917963z" fill="#ED778E"/><path d="M1000.55828 126.994937c-26.115714-27.483259-37.05608-62.554193-94.316547-54.040117a189.691839 189.691839 0 0 0-123.520268-24.26291 290.360857 290.360857 0 0 1-71.112382-32.8211c-12.352027-8.161161-45.040783 4.411438-65.068712 15.616491-11.425625 0-24.483482-3.440922-57.128124-9.837507-36.438479-7.14653-74.994448 13.631344-90.831511 32.071155-7.234759 8.425847-9.793393 18.131011 2.426291 28.012632 13.454886 10.852138 42.349806 21.836619 48.261133 31.541783 10.719795 17.645752 11.469739 57.789839 34.188645 67.318546 12.175569 5.117268 30.218351-3.132121 40.055859-19.763243 10.410994-17.425181-11.07271-52.05497-1.146974-70.847696 6.087785-11.557968 22.057191-9.793393 29.159606-8.24939 14.822432 3.440922 20.601416 20.998445 20.601416 30.880067 0 22.807135-6.925958 38.247168-0.838174 61.010189 6.837729 25.542227 3.264464 32.512299-5.734869 46.187758-5.911327 8.822876-16.057635 12.131455-11.557968 23.336507 1.896918 4.764353 9.881621 5.690755 20.33673 3.308579 42.39392-9.572821 70.980039-8.337618 98.419184 25.630455 12.572599 15.528262 22.057191 18.836841 27.880289 4.411438 4.896696-11.822654 8.425847-21.086674 5.602526-34.100416-3.793837-17.381066-37.938368-42.79095-33.923959-56.113493a10.146308 10.146308 0 0 0-6.970072-12.263798c-24.130567-7.675902-44.379067 13.234314-57.70161 21.130788-10.013965 5.823098-16.542893-13.984259-14.954776-26.027484s23.689423-30.880067 39.96763-38.732427a107.462633 107.462633 0 0 1 36.129678-8.822876c35.732649 0.970516 4.764353 41.996891 37.850139 49.055192 10.543337 2.293948 19.189756-7.45533 27.924403-10.984481 18.395697-7.411216 34.497446-11.999112 52.937258 3.485036 3.837951 3.264464 6.352471 10.499223 10.234536 14.293059 26.953887 26.468629 47.02593 16.71935 51.65794 70.58301 1.852804 21.571932 0 35.512077 10.322766 55.495892a10.234536 10.234536 0 0 0 15.837062 2.029261 40.364659 40.364659 0 0 0 16.10175-30.041893c0.794059-7.14653-0.882288-41.732205 0.352915-53.643088 1.455775-14.557746 33.615158-16.763465 45.658384-18.395697 18.086896-2.470405 13.851916-14.557746 8.205275-26.115714-7.278873-14.822432-20.866102-49.849251-45.305469-50.334508z" fill="#ED778E"/><path d="M905.182987 261.45557c-18.263354-38.291283-35.291505-48.790506-47.114159-47.996446-9.308134 0.617601-14.734203 9.043448-6.528928 20.292615 9.661049 13.234314 15.30769 22.277762 19.013298 38.203054 2.690977 11.690311-23.027707 46.849473 3.22035 49.319878 17.11638 1.588118 24.880511-5.602526 30.483037-12.837285 7.190644-9.219906 5.602526-37.276652 0.926402-46.981816zM314.447309 130.744659c3.617379-21.660161 4.102637-41.37929-17.645752-40.011744-10.808023 0.661716-33.394587 1.323431-43.011522 5.33784-7.940589 3.352693-16.895808 7.058301-12.881399 14.072488 6.793615 11.910883 21.483704 4.411438 30.880066 10.587451 18.307468 12.307912 7.278873 19.498556 0.39703 34.365103-4.146752 8.822876-6.925958 18.792726-10.146308 28.144976-3.573265 10.455108-16.322321 31.497668-8.822876 42.614492s16.939922 23.601194 38.86477 16.807579c3.264464-1.014631 20.072043-7.014187 24.351138-20.072043s-6.617157-15.175347-9.881621-28.89492a82.140978 82.140978 0 0 1-1.235203-37.320767c1.896918-8.955219 7.631788-16.807579 9.131677-25.630455zM736.224908 537.126338c-13.234314-15.881177-30.880067-20.292615-42.614493-36.703165-16.984037-23.468851-27.306802-27.880289-48.525819-28.233204-29.733093-0.485258-34.453332-7.808245-52.319656-8.117046-18.572154-0.352915-37.76191 13.499001-56.334065 12.307912s-26.468629-22.763021-40.055858-33.041671c-16.675236-12.616713-35.291505-4.764353-51.128568-19.454442-8.028817-7.499445-4.852582-26.468629-10.808023-38.952999-6.617157-13.984259-18.263354-8.028817-25.542227-20.248501-2.911549-4.896696 3.882066-21.527818-4.102637-29.380178-7.367102-7.190644-20.424958-6.970072-23.777652-11.160938-15.528262-19.410328-21.704276-36.923737-45.393698-46.761244-10.587451-4.411438-26.909773 1.588118-33.350472 3.749722-7.984703 2.735092-7.322987 18.660383-5.823098 26.953887 4.411438 23.468851-6.4407 45.658385 17.645752 71.950556 7.367102 8.028817 28.18909 8.469961 38.247168 17.910439 15.70472 14.690089 21.483704 39.305914 34.276875 56.819323 16.189978 22.057191 38.644198 34.409217 64.539339 42.305691 25.189312 7.675902 53.996003-6.970072 77.156053 3.352693 57.084009 25.321655 85.228984 21.307246 149.72421 33.041672 16.278207 2.955664 31.630011 20.160272 48.172904 23.424736 10.013965 1.941033 16.234092-12.219684 10.013965-19.763243zM928.519495 654.823507c-3.705608-15.572377-3.749722-32.335841-8.072932-47.555303-3.132121-11.07271-2.558634-15.660605-12.043226-24.968739-16.587007-16.322321-48.217019-23.601194-69.127235-32.027041-17.645752-7.102415-29.865436-10.455108-49.231649-7.322987-10.102193 1.632232-12.969628 21.571932-5.073154 41.335175 5.690755 14.29306 34.762132 11.07271 42.790949 13.234314 16.851694 4.764353 33.659273 6.837729 45.084898 20.998446 15.395919 19.101527 22.807135 49.672793 11.646197 63.215908-14.381288 17.381066-47.864104 29.90955-54.17246 52.937257-4.102637 15.131233 19.6309 15.572377 36.879622 15.131233 31.894698-0.838173 36.085564-27.880289 60.083787-54.17246 8.646419-9.26402 3.52915-31.144753 1.235203-40.805803z" fill="#ED778E"/><path d="M804.999228 709.790026c-4.411438-27.703831-9.705164-55.451777-35.291505-66.171571-12.616713-5.293726-20.292615 3.22035-34.806247-7.720017-30.483037-23.071821-58.054526-33.438701-77.597196-37.408995s-40.099972 0-59.819101-8.822877c-17.425181-7.411216-30.483037-19.189756-49.452222-23.027707-16.675236-3.352693-32.159384 1.588118-48.790505 1.852804-31.71824 0.441144-66.745059-22.057191-95.419407-34.100416C337.827931 507.393245 277.920601 479.512957 256.745698 406.591884c-1.720461-5.999556-11.293282-8.249389-14.293059-1.896918-6.617157 14.204831-17.645752 48.790506-19.498557 51.834398-5.33784 9.308134-15.087118 15.660605-19.454442 25.321655-15.043004 33.306358 2.382177 64.495225 5.02904 75.52382 7.631788 31.409439 26.115714 34.144531 52.36377 26.909773 10.410994-2.82332 18.307468-8.822876 28.277319-14.028373s14.778318-1.499889 25.674569 7.852359c20.998445 18.131011 39.702943 54.481261-8.558189 65.598085-22.057191 5.073154-38.511855 3.396807-57.745725 18.395697-4.764353 3.705608-6.573043 13.234314-2.029262 16.057635 32.115269 19.23387 59.598529 15.351805 92.640201-1.146974 17.160494-8.469961 33.1299-23.16005 53.77543-26.468629 13.543115-2.249833 30.041894 3.22035 43.540894 4.411439 22.365991 2.073376 40.099972-0.926402 61.760134-4.190867 53.951888-8.161161 98.683871 23.027707 153.694504 30.30658 20.866102 2.735092 52.187313-2.338062 72.524043 3.176236s57.039895 39.261799 70.230095 39.129456a10.852138 10.852138 0 0 0 10.322765-13.58723zM172.046087 169.388857c-20.998445 5.205497-30.880067 18.439811-39.085342 37.76191-12.352027 29.115492-22.498334 61.980706-48.525819 81.479262-31.277096 23.601194-38.379512 44.114381-7.675903 74.994448a8.822876 8.822876 0 0 0 11.954998 0c8.469961-8.293504 8.072932-13.631344 11.337396-25.189311 6.484814-22.983593 20.689645-34.497446 29.336063-55.187091 2.073376-4.940811 1.764575-10.234536 3.52915-14.734204 5.955441-15.219462 15.263576-18.880955 26.909773-26.071599s16.542893-8.028817 21.174903-21.263132c1.544003-3.705608 25.542227-60.348473-8.955219-51.790283z" fill="#ED778E"/><path d="M220.042533 302.526059c1.632232-2.426291 15.351805-17.292837-1.102859-17.292837a46.231871 46.231871 0 0 0-39.923515 23.204164c-9.705164 15.263576 10.543337 45.217241 11.602082 51.525598 2.690977 15.616491-15.837063 46.496558-33.174015 58.186868-45.349584 30.615381-66.171572 16.542893-79.405886 6.837729-3.749722-2.779206-20.777874-8.55819-29.247834 6.617158-19.277985 34.54156 0.573487 67.186203-2.073376 83.817324-5.029039 32.600528 10.543337 37.05608 24.351138 29.20372 6.881843-3.882066 18.92507-22.542449 25.056969-32.909328 12.925514-22.057191 16.631122 2.51452 20.204386 21.395475 5.470183 29.336063 1.235203 51.525597 37.011966 58.054525 13.587229 2.470405 19.851472-9.396363 21.483704-12.352026 11.999112-22.057191-7.85236-47.114159-0.970517-72.215242s23.821766-41.114603 29.071377-66.789174 21.527818-42.305692 24.615825-67.406774c2.646863-21.527818-20.998445-50.290395-7.499445-69.87718zM145.577458 611.459071c-6.881843-7.764131-21.04256-12.749056-31.40944-8.337618-8.028817 3.396807-7.058301 26.468629-21.616046 25.145197-6.176013-0.529373-10.36688-4.411438-16.763465-1.455775a14.028373 14.028373 0 0 0-8.381733 10.410994c-2.073376 10.102193 6.087785 29.159606 13.543115 35.556192 10.322765 8.822876 19.013298 0 26.468629-7.322988 10.896252-10.940367 28.056746-11.07271 38.114826-23.424736a22.939478 22.939478 0 0 0 0.044114-30.571266zM225.909746 688.262208c-0.617601-11.999112-10.455108-22.718906-22.498334-18.263354-3.52915 1.279317-5.955441 9.572821-22.057191 14.866547-9.352249 3.088007-11.028595 15.748834-15.881177 23.954109-8.072932 13.719573-16.01352 14.204831-29.336064 19.763243-39.967629 16.71935-13.013742 34.497446 5.205497 44.114381 29.291949 15.263576 52.937257-28.365547 52.275542-38.688312-0.970516-22.630678 15.087118-10.410994 25.453998-26.468629a31.71824 31.71824 0 0 0 6.837729-19.277985z" fill="#ED778E"/><path d="M500.874684 266.925754a20.072043 20.072043 0 0 0-16.322321 6.793614 7.014187 7.014187 0 0 0-1.10286 8.205275 22.895364 22.895364 0 0 0 37.894254 1.10286c3.617379-4.764353 3.132121-15.572377-20.469073-16.101749zM294.375266 188.710956a7.808245 7.808245 0 0 0-14.072488-1.80869c-3.617379 6.308357-7.499445 12.528484-11.293282 18.748612a7.367102 7.367102 0 0 0-1.058745 3.529151 17.645752 17.645752 0 0 0 12.307913 24.439367c24.395253 4.676124 18.439811-32.027041 14.116602-44.90844zM691.84584 623.811097a616.189676 616.189676 0 0 0-62.598307-10.852137c-13.234314-1.455775-46.143643-17.998668-50.996224-21.351361-26.733315-18.439811-50.555081-17.954553-86.023044-4.411438-21.130789 8.028817-51.966741-18.042782-73.141644-27.836175L402.543728 547.096189c-17.072266-11.910883-26.865658 1.146974-33.085786-5.955442a121.491006 121.491006 0 0 0-53.77543-34.93859c-13.587229-4.764353-27.439145-1.279317-39.96763-11.337396s-12.749056-30.041894-13.234314-36.262021c1.985147-15.440033-8.072932-22.586563-14.866546-21.219017-4.940811 0.970516 0.794059 15.087118-9.881622 29.071377-19.013298 24.836397-16.145864 41.820433-10.146307 59.245614s12.704942 37.629567 28.233203 39.702943c14.425403 2.161605 38.952999-12.08734 42.438035-18.52804 3.92618-7.322987 16.675236-16.057635 27.968518-10.102194 18.792726 9.881621 15.219462 32.909328 28.144975 49.628679 23.468851 30.438923 49.628679 24.748168 70.230095 28.806691 8.161161 2.646863 61.363104-8.822876 66.612715-9.528706 45.746613-7.322987 38.335397 12.837285 67.186203 28.056746 7.896474 4.190866 64.230539 30.615381 91.316769 32.11527 22.057191 1.191088 74.994448 11.205053 84.831955 0 15.395919-16.939922-17.998668-34.93859-42.702721-42.041006zM98.330956 289.335859c-4.146752 2.249833-28.18909 21.263132-27.08623 42.129234 0.617601 11.028595 9.484592 18.351583 14.778317 8.822877a142.754138 142.754138 0 0 1 15.440034-23.865881c5.73487-6.837729-4.146752-12.440255 6.131899-21.527818 3.573265-2.955664 0.970516-11.028595-9.26402-5.558412z" fill="#F098AE"/><path d="M379.383678 838.780477c40.585231-6.881843 165.870073-47.908218 165.825959-109.44778-19.410328-26.468629-59.422071-27.79206-89.287507-31.630011-47.687646-6.131899-94.890034-6.705386-139.842589 12.307912-23.733537 10.058079-71.024154 32.159384-90.390367 59.289729C262.348225 821.134724 304.38923 851.485419 379.383678 838.780477z" fill="#F4A479"/><path d="M223.174654 814.076423c9.96985 28.983148 33.52693 41.070489 59.333843 58.760356 32.203498 22.057191 55.363548 21.395475 92.640201 16.366436 50.158051-6.793615 105.609829-31.894698 145.974487-63.12768 26.777429-20.733759 45.967185-58.319212 27.659717-91.140311a55.098862 55.098862 0 0 0-3.573265-5.602527c0 61.539562-125.240728 102.565936-165.825959 109.44778-74.994448 12.793171-117.035453-17.645752-153.694504-69.48015a47.908218 47.908218 0 0 0-7.499445 14.91066 32.776985 32.776985 0 0 0 4.984925 29.865436z" fill="#EB956A"/><path d="M547.018327 731.758988a26.468629 26.468629 0 0 0-10.146308-17.910439c-21.35136-13.234314-48.217019-6.925958-73.009301-5.999555-28.674348 1.058745-57.348696 2.470405-85.846586 5.64664A555.841203 555.841203 0 0 0 251.451973 744.949188c-7.102415 2.602748-20.469073 16.145864-22.057191 17.910439-17.028151 20.866102-14.822432 36.570822-12.08734 45.084897a95.948779 95.948779 0 0 0 16.984036 27.924404C290.140285 900.011238 378.060247 882.365485 437.923462 855.896857c43.761466-19.410328 135.563493-61.495447 109.094865-124.137869z m-326.093506 68.06849c29.247835-7.896474 58.054526-15.969406 88.228762-19.586785 29.380178-3.485036 58.80447-2.205719 88.228763-4.411438 21.792504-1.544003 43.232094-5.602526 62.421849-16.631122 23.115936-13.234314 41.555747-34.497446 68.06849-39.394142-35.909106 42.041005-85.052527 65.509856-140.107274 71.068268-25.939256 2.602748-51.878512-0.441144-77.861883 1.102859-29.733093 1.80869-59.289728 15.616491-88.846364 8.822877zM386.397865 719.142275c30.130122-2.735092 63.921738-7.014187 96.345808-6.176013-12.219684 2.029262-24.351138 5.205497-36.173792 8.337618-38.379512 10.146308-74.376847 13.234314-113.815104 16.895808-5.558412 0.529373-17.645752 2.205719-26.468628 3.485036-18.307468 2.690977-38.335397 7.764131-52.275542 9.749278 8.734647-7.234759 83.332066-27.880289 132.387258-32.291727z m-148.886037 44.114381a107.594976 107.594976 0 0 1 25.012854-8.822876 323.181957 323.181957 0 0 1 38.247169-7.367102c27.439145-3.749722 55.142976-5.029039 82.582121-8.822876 41.732205-5.558412 80.420517-20.601416 121.799807-23.821766 5.117268 0.573487 10.146308 1.279317 15.087118 2.249834-15.263576 4.411438-28.18909 13.454886-41.776319 23.248279-29.115492 20.998445-57.348696 29.336063-93.169573 30.880066-56.466408 2.249833-112.359329 4.411438-164.811328 27.350917-3.749722-15.881177 7.190644-29.468407 17.028151-34.894476z m64.009967 34.497446c31.497668-2.338062 62.951222 2.205719 94.44889-1.852804 52.937257-6.837729 106.403887-30.880067 138.475043-74.994448a0.441144 0.441144 0 0 0 0-0.3088 7.808245 7.808245 0 0 1 4.411438 8.249389c-27.395031 47.42296-88.228762 62.774764-138.386814 73.40633a789.912109 789.912109 0 0 1-88.228762 12.528485c-14.248945 1.323431-64.627568 11.425625-85.581899 3.793836-0.661716-1.41166-1.323431-2.867435-1.852805-4.411438a93.787174 93.787174 0 0 1-3.176235-10.763909c26.248057 8.381732 53.069601-3.749722 79.891144-5.734869z m-71.729983 27.042116c16.057635 3.617379 39.702943-2.161605 51.084453-2.82332a871.259028 871.259028 0 0 0 112.226986-12.793171c47.114159-8.822876 126.520045-25.056969 146.680317-76.847252 1.896918 34.144531-30.218351 54.657718-56.201721 72.215242-23.909995 16.057635-49.055192 31.056524-76.847253 39.394142s-56.951666 9.175791-85.802471 9.175792c-26.865658 0-53.996003 0.573487-77.244281-13.234315a78.303027 78.303027 0 0 1-13.89603-15.175347zM427.909497 854.441082c-55.187091 23.468851-117.961855 33.703387-169.090423-2.11749 15.175347 5.646641 32.42407 6.4407 49.099307 6.925958 39.350028 1.10286 79.405886 0.352915 116.50608-14.116602a356.620657 356.620657 0 0 0 89.684537-53.819545c16.145864-12.793171 30.130122-29.071377 32.688757-48.52582 6.04367 58.142754-74.420961 92.728429-118.888258 111.653499z" fill="#CE704B"/><path d="M581.824573 98.673504c-16.454664-2.470405-17.954553 8.822876-14.337173 20.910217a150.915298 150.915298 0 0 0 7.499444 22.277762c2.51452 8.249389 1.544003 19.9397 11.822654 22.851249s20.557302-7.14653 25.189312-15.395919c10.896252-19.454442-9.925736-47.775875-30.174237-50.643309zM672.303169 41.23658c-2.735092-4.63201-5.426069-4.411438-10.013964-5.470184s-14.425403 1.146974-18.792727 1.720461c-6.352471 0.749944-12.572599 1.499889-18.792726 2.11749-17.028151-0.220572-30.880067-10.543337-47.952332-13.234314a69.833065 69.833065 0 0 0-37.497224 4.411438c-12.263798 5.205497-36.041449 21.35136-31.806469 37.541339 3.176235 12.131455 24.748168 22.630678 35.864992 15.969406 7.543559-4.411438 11.38151-9.043448 17.11638-6.087785 20.64553 10.631566 28.674348 8.161161 37.05608 2.249833 4.852582-3.440922 9.440478-12.793171 12.263798-15.395919 10.852138-9.837507 32.644642 4.102637 45.526041 0.838174 9.175791-2.11749 23.512965-13.454886 17.028151-24.659939zM756.076379 46.927335a44.114381 44.114381 0 0 0-13.234314-2.249834 81.302805 81.302805 0 0 1-17.248723-3.617379c-10.190422-11.160938-25.012854-9.087563-23.645309 8.469961 0.529373 7.45533-1.720461 17.072266 3.573265 23.248279 6.176013 7.234759 19.366213 4.014409 27.48326 7.896474 7.014187 3.352693 12.616713 8.337618 20.204386 3.264465a34.100417 34.100417 0 0 0 12.396141-21.086675 14.734203 14.734203 0 0 0-9.528706-15.925291zM798.07327 240.192439c-4.411438-12.881399-12.881399-14.822432-22.586563-22.85125-7.631788-1.455775-9.837507-28.409661-16.366436-34.54156-9.528706-8.822876-22.410106-4.720239-30.262465 3.793837a83.817324 83.817324 0 0 0-11.866769 12.837284c-5.426069 6.4407-11.07271 15.792948-22.586563 1.367546-1.720461-2.205719-1.764575-5.470183-3.661493-7.675902-2.867435-3.308579-6.264242-4.896696-10.102194-1.764575-7.058301 5.778984 0.308801 13.763687 5.205497 19.807357-0.794059 6.970072-32.027041 22.586563-12.969628 25.365769 16.057635 2.338062 34.894476-9.484592 51.305025-8.072932 11.513853 1.014631 24.57171 11.160938 34.806247 16.851694 7.190644 4.014409 14.513631 14.381288 22.630678 17.204609 16.189978 5.73487 21.263132-8.822876 16.454664-22.321877zM1020.189179 156.419229a64.495225 64.495225 0 0 0-22.410105-17.381066c-17.072266-8.822876-18.748612-21.792504-30.438923-35.291505a63.480595 63.480595 0 0 0-25.409884-17.645753c-14.29306-5.381955-26.468629-0.617601-40.541116-2.161604-19.807357-2.11749-29.071377-19.763243-46.584787-26.468629a120.82929 120.82929 0 0 0-42.79095-5.73487c-13.807801 0-30.571266 5.602526-32.335841 18.175125a22.057191 22.057191 0 0 0-5.073154 17.645753c1.191088 5.73487 4.411438 5.690755 8.072932 9.043448 8.55819 7.543559 18.131011 11.602082 23.909995 22.630677a85.317213 85.317213 0 0 0 4.190866 10.499223 16.895808 16.895808 0 0 0 16.498778 7.896474 40.144087 40.144087 0 0 0 8.822877-2.911549c19.101527-5.778984 31.453554-10.852138 50.202165 0 15.70472 8.822876 14.204831 31.674126 30.438923 38.820656 19.763243 8.822876 29.336063-17.292837 46.320101 4.411438 10.058079 12.793171 29.512521 19.013298 48.128789 15.440033 25.983371-5.073154 17.513409-26.159828 8.999334-36.967851z" fill="#F098AE"/><path d="M849.554753 94.526752c-4.63201 0-17.160494 6.131899-17.160495 14.425403 0 9.043448 14.822432-2.161605 17.645753-4.014409s4.984925-3.485036 4.411438-6.617157a4.808468 4.808468 0 0 0-4.896696-3.793837zM276.553056 519.260014c-4.411438 0-17.204609 6.176013-17.160495 14.469517 0 8.822876 14.822432-2.161605 17.645753-4.014409s4.984925-3.485036 4.411438-6.661271a4.852582 4.852582 0 0 0-4.896696-3.793837zM355.429569 338.435166c-4.411438 0-17.204609 6.176013-17.204608 14.469517 0 8.822876 14.822432-2.161605 17.645752-4.058524s4.984925-3.440922 4.411438-6.617157a4.852582 4.852582 0 0 0-4.852582-3.793836zM151.753471 206.444937c-2.82332 3.617379-5.249611 17.645752 1.41166 22.410106s7.058301-13.234314 7.278873-16.587008 0-6.131899-2.690977-7.543559a4.896696 4.896696 0 0 0-5.999556 1.720461zM646.893286 632.766317c-4.190866-1.985147-18.219239-1.10286-21.483704 6.528928s14.469517 3.837951 17.645752 3.22035c2.690977-0.485258 5.955441-1.235203 6.661272-4.411438a4.808468 4.808468 0 0 0-2.82332-5.33784zM986.618135 143.229029c-2.82332-3.440922-28.453776-3.661494-38.688312 5.249611-8.822876 7.720017 17.645752 2.602748 19.498556 2.51452 2.51452-0.132343 26.336286 0.970516 19.189756-7.764131zM447.187482 594.872063c-1.235203-4.411438-24.704053-14.60186-37.629567-10.410994-11.205053 3.573265 15.219462 9.396363 16.895808 10.013965 2.426291 0.838173 23.86588 11.249167 20.733759 0.397029z" fill="#EA5E72"/><path d="M1085.831378 178.652877c-7.14653-6.881843-20.33673-17.292837-25.453998-25.895142-3.837951 3.882066 0 12.969628 1.676347 15.263576 2.470405 5.690755 7.014187 10.499223 10.102193 16.939922 6.837729 14.29306-4.058523 21.395475-14.910661 28.586119-5.646641 3.661494-10.896252 7.85236-16.542893 11.513854-9.219906 5.999556-17.998668 12.307912-22.76302 25.27754s-4.411438 25.542227-4.63201 38.644198c-0.397029 19.189756-1.676346 40.364659-28.497891 41.643976-11.822654 0.573487-25.498112-6.661272-33.747501-14.337174-15.616491-14.557746-12.263798-35.291505-17.072266-54.216574a96.081122 96.081122 0 0 0-17.645752-35.291505c-8.602304-10.940367-26.468629-31.453554-41.291061-20.072044a3.705608 3.705608 0 0 0 0 5.161383c20.998445 20.866102 58.936813 49.584564 48.525819 83.111494-4.896696 15.528262-22.851249 37.497224-40.364658 37.232538-35.688534-0.573487-35.909106-24.748168-35.688535-41.908662 0-11.822654 4.411438-47.467074-10.543337-66.745059-20.821988-26.468629-6.705386-38.688312-12.572598-41.158718-8.072932-3.396807-22.542449 13.587229-22.057191 27.218573 0.441144 9.528706 5.426069 18.219239 9.219906 26.468629 5.470183 12.131455 20.292615 45.570156 13.234314 64.892255a51.878512 51.878512 0 0 1-13.675458 11.425625c-16.057635 8.249389-26.071599 0.882288-39.305914-7.014187-5.999556-3.573265-12.08734-6.837729-18.307468-9.881621a83.199723 83.199723 0 0 0-9.219906-4.411438c-1.985147-0.882288-3.882066-1.896918-5.867212-2.690978-10.808023-4.411438-19.322099-11.160938-29.688979-12.660827 1.896918-4.102637 10.499223-16.763465 10.940367-18.21924a10.543337 10.543337 0 0 0-1.323432-10.146307 3.043892 3.043892 0 0 0-5.470183 0.70583 120.255803 120.255803 0 0 1-9.96985 17.998667c-9.308134 10.410994-15.263576 8.822876-28.586119 7.85236-7.190644-0.485258-16.145864 1.588118-23.645309 1.323432-4.014409-0.970516-8.028817-2.073376-11.999111-3.352693-14.248945-8.072932-13.499001-23.601194-6.925958-38.423626a338.357304 338.357304 0 0 0 22.630677-27.659717c9.175791-17.336952 0.70583-28.674348 3.264465-48.217019 2.779206-21.307246 12.307912-59.819101-13.234315-65.465742-5.646641-1.235203-11.07271 1.764575-11.557968 3.705608-3.970294 16.895808 4.411438 30.350694 6.925958 46.937702 5.293726 31.71824-8.822876 74.994448-47.864103 73.626902S552.179709 163.301072 540.357055 136.832444c-4.411438-9.616935-8.822876-20.777874-21.483704-28.277319-7.543559-4.411438-27.924403-13.543115-36.306135-25.27754-6.705386-9.396363-2.82332-21.704276 0-26.203943 3.396807-5.690755 8.822876-8.822876 12.352026-14.160716s2.338062-10.499223 5.293726-15.70472c3.882066-6.793615 13.234314-9.837507 18.704498-15.175347-20.204387 4.411438-30.880067 16.322321-31.277096 17.954553-5.470183-5.646641-20.027929-7.984703-30.880067-4.411438 17.11638 8.117046 16.984037 25.145197 13.587229 40.849917A28.983148 28.983148 0 0 0 467.612441 83.895186a28.365547 28.365547 0 0 0 5.293725 9.219906 75.612049 75.612049 0 0 1 4.764353 22.45422c1.455775 13.234314 17.336952 3.573265 28.100861 3.970294 25.27754 0.970516 29.997779 32.247613 37.541339 55.363549 1.720461 5.602526 6.793615 15.660605 5.778984 28.056746-0.926402 10.852138-17.645752 14.645975-26.733315 17.072265s-16.101749 1.499889-22.057191 8.822877c-1.941033 2.470405-0.970516 6.925958 2.779206 6.7495 17.645752-0.794059 41.732205-4.720239 55.407663-17.204609a137.769212 137.769212 0 0 1 40.364659 16.895808c10.984481 8.822876 8.514076 25.762799 14.20483 37.673682 5.161383 10.940367 14.866546 19.322099 13.89603 32.953443-0.70583 10.146308-7.85236 17.954553-7.631788 28.983148a3.882066 3.882066 0 0 0 7.14653 1.941033c6.264242-10.013965 15.440033-20.601416 17.336952-32.512299 2.205719-13.543115 6.573043-13.807801 13.984259-16.145864 11.205053-3.573265 88.228762 12.925514 103.71291 22.45422 7.675902 7.940589 9.661049 17.292837 7.631788 30.218352a121.182205 121.182205 0 0 0-2.382177 22.939478c0 3.176235 1.588118 6.881843 3.882066 4.720239 6.970072-6.617157 7.278873-18.175125 10.058079-26.953887 3.617379-11.293282 18.969184-12.925514 34.056302-19.807358 11.866769-5.426069 26.468629 5.646641 36.482593 14.734204 7.764131 6.970072 23.601194 8.249389 34.100417 9.925736 26.733315 4.014409 9.837507 24.130567 9.881621 38.997112a3.92618 3.92618 0 0 0 7.808246 0c0.749944-30.174237 29.60075-41.291061 55.451777-29.159605a60.92196 60.92196 0 0 0 11.557968 6.484814c7.278873 1.235203 8.822876-0.749944 14.690089-4.852582 14.866546-10.234536 34.497446-25.895142 35.026818-46.673016 0-5.955441 2.338062-12.043226 2.426291-18.483925 0-11.249167 3.485036-44.423182 16.498779-53.819545 10.896252-7.896474 31.585897 6.4407 34.585675 10.719794a4.058523 4.058523 0 0 0 6.308356 0.794059 11.07271 11.07271 0 0 0 2.867435-11.866768c-2.779206-8.822876-14.469517-13.675458-7.764131-22.057191s25.586341-6.970072 34.762132-3.176235c-2.735092-10.322765-15.70472-27.08623-23.601194-34.673904z" fill="#DA4054"/><path d="M533.784012 41.016008c-8.822876 0-14.028373 9.484592-14.513631 17.645752a4.058523 4.058523 0 0 0 6.04367 3.529151c4.455552-2.470405 17.954553-21.174903 8.469961-21.174903zM582.927433 101.893854c-6.396585-1.544003-9.705164 7.631788-10.102193 13.234314-0.264686 3.882066 5.029039 4.676124 6.881843 1.852804s9.705164-13.499001 3.22035-15.087118zM851.407557 63.514342c-12.219684-5.117268-25.851027-9.705164-38.688313-5.161383-2.911549 1.014631-2.646863 5.778984 0.794059 5.646641 13.234314-0.441144 33.703387 19.057413 43.232094 8.822876 1.985147-2.161605 2.029262-6.308357-5.33784-9.308134zM881.44945 84.512787c-2.029262-1.941033-7.190644-6.396585-9.131677-1.852804-1.588118 3.661494 3.088007 6.837729 6.131899 7.896475a4.896696 4.896696 0 0 0 4.984926 1.235202c3.793837-1.80869-0.352915-5.690755-1.985148-7.278873zM948.459195 100.261622c-5.470183-8.469961-17.292837-9.661049-26.468628-10.984481-6.264242-0.926402-21.660161-4.676124-26.733315 0.441143a1.720461 1.720461 0 0 0-0.264687 2.073376c1.764575 3.617379 6.617157 3.52915 10.852138 2.690978a97.051639 97.051639 0 0 1 14.425403-1.235203 49.275764 49.275764 0 0 1 19.366213 6.220128c2.558634 1.455775 4.411438 3.573265 7.367102 3.52915a1.80869 1.80869 0 0 0 1.455774-2.735091z" fill="#F7C7D5"/><path d="M455.216299 42.162982c-10.719795-5.293726-27.880289-0.529373-40.717573 2.690977-11.910883 2.955664-26.027485 11.646197-40.761689 21.263132-11.77854 7.720017 4.014409 22.057191 16.366436 19.366213a58.054526 58.054526 0 0 0 15.30769-7.720017 94.84592 94.84592 0 0 1 34.012188-10.852138c6.793615-1.146974 11.469739 0 15.351805-6.793614 5.646641-9.528706 5.778984-15.925292 0.441143-17.954553z" fill="#ED778E"/><path d="M440.482096 93.997379c-9.26402-6.661272-25.101083-2.558634-32.776985 6.4407a19.454442 19.454442 0 0 0-5.161383 4.411438 19.851472 19.851472 0 0 0 0.617602 21.174903c6.087785 8.822876 16.01352 5.999556 24.792282 3.485036 7.367102-2.11749 20.116158-4.014409 21.130788-13.234314a26.468629 26.468629 0 0 0-8.602304-22.277763zM488.655 162.021755c-12.043226-4.411438-14.469517 7.322987-31.188867-13.234314-10.940367-13.499001-25.365769-7.058301-33.350472 0.573487-9.087563 8.822876-4.411438 19.366213 1.323431 29.644864 6.308357 44.379067-6.352471 29.644864-4.014409 56.68698 0.926402 10.455108 14.60186 44.114381 30.041894 41.599861 16.587007-2.646863 13.234314-35.291505 14.734203-45.967185 3.176235-21.660161 16.895808-27.306802 27.659717-42.835064a14.954775 14.954775 0 0 0 3.749723-10.852138c-0.088229-5.514298-3.52915-13.675458-8.95522-15.616491zM580.192341 286.42431c-11.425625-22.630678-33.306358-24.659939-40.364658-9.396363s0 31.541783-10.631566 45.878956c-6.970072 9.440478-15.837063 14.60186-20.380844 26.115714-6.220128 15.792948-1.10286 24.924625 15.61649 27.439145 7.896474 1.191088 15.395919 1.41166 22.057191-3.352693 12.043226-8.822876-0.749944-30.880067 10.763909-30.527152 4.896696 0 2.073376 26.909773 11.822654 25.498113 13.631344-1.985147 20.424958-20.557302 21.74839-30.174237 2.735092-20.513187-1.632232-33.438701-10.631566-51.481483zM732.298728 357.404349a12.263798 12.263798 0 0 0-5.426069-6.308356c-4.411438-2.293948-24.395253-0.264686-33.394587-8.425847-7.102415-6.528928-11.866769-14.60186-22.718906-11.469739s-16.189978 17.160494-20.160272 28.453776c-5.867213 13.234314 0.308801 17.645752 6.528928 19.322099 8.822876 2.338062 17.645752 0.264686 26.733315 2.779206 10.543337 2.955664 16.631122 9.881621 25.718684 15.219461s13.807801 5.778984 19.013299-3.52915S736.710166 367.727115 732.298728 357.404349zM864.641871 378.226337c-5.73487-5.514298-14.954775-4.146752-23.512965-2.205719a42.526263 42.526263 0 0 0-13.234314-2.955663c-10.322765 0-18.748612 8.822876-24.792283 16.278206-4.984925 6.352471-12.616713 17.160494-8.16116 25.67457 4.852582 9.219906 19.983815 9.219906 28.630233 10.499223a41.599861 41.599861 0 0 1 16.322321 4.808468 45.658385 45.658385 0 0 0 6.705386 4.411438 11.954997 11.954997 0 0 0 10.190422 0c9.837507-4.676124 9.440478-19.23387 10.587452-28.233204s4.764353-21.130789-2.735092-28.277319zM993.058835 406.54777c-2.779206-15.219462-13.719573-12.704942-26.203943-17.645752-10.940367-4.411438-21.527818-11.77854-32.335841-2.823321a28.277318 28.277318 0 0 0-9.087563 20.072044 73.185758 73.185758 0 0 0-2.82332 24.880511c1.235203 10.896252 5.426069 15.263576 16.41055 12.837285 7.808245-1.80869 14.822432-6.176013 22.586563-8.161161 6.793615-1.764575 14.557746-1.146974 21.04256-4.411438 9.925736-4.455552 12.263798-14.690089 10.410994-24.748168zM1092.580879 302.084915c-13.234314-22.057191-35.864992-6.308357-27.880289 15.087119 2.735092 9.131677 8.337618 18.483926 8.55819 26.468629 0.352915 13.631344-18.792726 36.482593-11.116824 50.334508 5.293726 9.705164 17.072266 7.720017 25.145197 2.20572C1098.889235 388.284416 1105.991651 370.638664 1105.418164 357.404349c-0.749944-16.234092-4.367324-41.246946-12.837285-55.319434z" fill="#F098AE"/><path d="M424.071546 96.379556c-7.322987-2.029262-16.189978 10.102193-14.690089 18.131011 0.529373 2.867435 4.411438 2.867435 5.867213 0.749944s1.985147-5.249611 3.617379-7.631788 12.043226-9.308134 5.205497-11.249167zM444.45239 147.375781c-4.984925-1.323431-12.572599 2.558634-15.925291 6.176013-4.411438 4.63201-2.999778 9.881621-0.573487 15.351805 2.029262 4.411438 3.970294 0.485258 3.970294-0.485259 0-5.73487 3.749722-8.55819 8.822876-10.102193a13.763687 13.763687 0 0 0 7.014187-2.999778 5.029039 5.029039 0 0 0-3.308579-7.940588zM443.217188 190.651989c-0.529373-3.485036-1.720461-11.690311-6.484814-11.910883-3.749722 0-3.970294 3.52915-3.61738 6.308356a126.299473 126.299473 0 0 1 1.720461 12.837285 32.203498 32.203498 0 0 1-0.3088 4.146752c-0.926402 3.617379-2.293948 7.102415-3.22035 10.719795-0.617601 2.51452-1.455775 6.4407 2.382176 6.35247s6.573043-7.367102 7.720017-10.190422a35.291505 35.291505 0 0 0 1.80869-18.263353zM561.179043 276.939718v-0.352915a9.616935 9.616935 0 0 0-1.235203-1.102859c-6.087785-3.793837-11.557968 1.41166-12.48437 7.190644a86.552416 86.552416 0 0 0-2.426291 17.072265c-0.352915 2.029262-2.779206 7.896474 1.146974 8.337618s4.720239-5.823098 5.117269-8.16116c0.573487-3.308579 0-8.028817 2.602748-10.67568s5.867213-1.80869 7.984703-4.411439a5.778984 5.778984 0 0 0-0.70583-7.896474zM428.43887 48.118423c-6.970072-3.661494-20.072043 3.52915-26.733315 6.131899-7.411216 2.911549-20.248501 6.396585-23.689423 14.204831-0.70583 1.632232 0 3.970294 2.205719 3.837951a12.837285 12.837285 0 0 0 10.278651-4.852582c2.249833-1.764575 4.411438-3.617379 6.308357-4.852582A85.449556 85.449556 0 0 1 427.909497 51.074087a1.632232 1.632232 0 0 0 0.529373-2.955664z" fill="#F7C7D5"/><path d="M1176.707004 407.209486c-5.999556-21.483704-3.352693-28.144975 0.838173-49.099306a52.937257 52.937257 0 0 0 1.146974-10.675681c-2.999778 7.587674-19.013298 32.027041-18.969184 48.922849 0 13.984259 4.63201 25.983371-4.896696 40.144087-8.028817 11.954997-12.749056 21.74839-27.924404 26.468629-21.395475 6.970072-46.673015-1.191088-69.303693 4.102637-23.645308 5.514298-50.113937 8.337618-71.024153 20.292615-22.586563 12.837285-43.629123 40.541116-69.215464 46.231872-18.92507 4.411438-20.292615-4.984925-31.144753-13.807801a40.717574 40.717574 0 0 0-14.601861-6.970073l0.617602-1.41166a22.057191 22.057191 0 0 1 12.307912-11.07271 15.351805 15.351805 0 0 0 10.013965-13.499 3.485036 3.485036 0 0 0-3.440922-3.396808c-16.101749-1.10286-28.89492 19.101527-44.114381 16.145864a54.437146 54.437146 0 0 0-24.836397-12.08734c-21.307246-2.867435-52.319656 12.704942-64.186425 2.293947a66.392144 66.392144 0 0 0-16.939922-11.293281c-6.661272-2.558634-15.881177-0.882288-22.057191-4.411438-14.60186-8.822876-22.807135-20.557302-35.776763-25.233426-22.057191-7.85236-42.570378-1.014631-64.980483-0.970517-25.409884 0-37.673682-22.45422-60.833732-24.836396-12.352027-1.279317-28.144975 1.720461-51.746169-5.867213-18.660383-5.955441-23.16005-17.910439-30.880067-32.600528-8.249389-15.572377-22.057191-31.144753-15.528262-49.452221 0.352915 0 19.410328-3.52915 19.23387-13.234314a3.52915 3.52915 0 0 0-2.470405-3.264465c-4.411438-1.764575-18.439811 6.396585-29.777207 5.823099-10.499223-0.529373-28.233204-20.777874-32.512299-25.056969-8.381732-8.381732-18.263354-12.396141-27.439145-19.630899a59.554415 59.554415 0 0 1-18.263354-28.233204 341.13651 341.13651 0 0 1-7.808246-33.306358c-2.779206-12.440255-12.219684-23.115936-10.366879-35.291505 2.426291-15.792948 23.86588-26.468629 22.76302-42.217463a85.273099 85.273099 0 0 0-2.999777-11.160938c-3.088007-9.572821-6.484814-14.645975-8.822877-24.924626-1.896918-9.219906-14.910661-27.042116-11.690311-34.762132 2.602748-6.352471 9.528706-10.67568 14.425403-14.954775v-0.39703a156.958968 156.958968 0 0 1-23.821766 12.352027 125.990673 125.990673 0 0 1-31.982926 5.558412c-0.308801 0-0.352915 0.529373 0 0.529373a73.582788 73.582788 0 0 1 23.86588 2.249833c13.234314 4.411438 13.543115 15.263576 16.01352 27.042116 1.41166 6.528928 4.676124 11.954997 6.484814 18.395697a35.026819 35.026819 0 0 1 2.117491 14.513631c-1.632232 11.337396-8.822876 20.380844-13.984259 31.232982a28.630233 28.630233 0 0 0-3.92618 19.410328c2.602748 11.954997 11.646197 21.74839 14.734203 34.144531 0.308801 1.323431 0.617601 2.51452 0.926402 3.793836a37.850139 37.850139 0 0 1-1.896918 14.204831c-2.955664 7.675902-14.381288 8.822876-22.057191 11.116824a107.330289 107.330289 0 0 0-11.557968 2.779206c-7.896474 2.293948-17.645752 3.440922-22.05719 10.984481a2.382177 2.382177 0 0 0 1.41166 3.440922c12.175569 2.249833 20.821988-8.249389 32.688756-9.528706 16.322321-1.720461 28.542005 11.646197 40.055859 22.05719s23.16005 22.939478 35.909106 31.40944c4.808468 3.22035 18.351583 8.337618 24.527596 17.160494 8.249389 11.734425-3.176235 18.704498-6.705386 28.939034a3.705608 3.705608 0 0 0 4.411438 4.411438 25.586341 25.586341 0 0 0 14.910661-11.646197c9.219906 7.367102 9.881621 26.468629 14.425402 37.276652 3.92618 9.131677 7.631788 20.954331 14.469517 28.233204 18.086896 19.277985 47.02593 15.881177 58.142755 15.969406 38.335397 0.220572 47.114159 17.336952 65.730428 23.909995 16.101749 5.690755 32.8211 1.632232 49.319878 0 27.527374-2.382177 45.834842 10.587451 65.24517 30.527152 8.072932 8.337618 23.777651 14.425403 27.968517 17.204608 9.175791 5.999556 9.96985 13.234314 11.646197 22.674792 1.367546 7.587674 7.190644 13.234314 12.925514 4.764354a32.335841 32.335841 0 0 0 2.029261-15.351805c7.631788-5.161383 34.806247 6.396585 49.628679 10.940366 12.749056 3.882066 26.027485-0.838173 37.629567 6.176014a62.510078 62.510078 0 0 0 14.690089 7.543559c22.851249 7.278873 41.335175 11.160938 55.407663 33.968074 12.572599 20.380844 9.26402 44.731983 12.219684 67.803803 1.41166 11.293282 7.764131 5.205497 8.072931 0 0.573487-14.557746 9.616935-28.144975 8.161161-42.790949-1.014631-10.146308-7.85236-16.454664-10.67568-25.718685-9.043448-29.821322 15.792948-50.555081 38.732426-62.245391 17.645752-8.822876 33.262243-10.455108 52.187313-16.189978 39.085342-11.77854 121.314548 0.926402 132.960745-54.304804a21.571932 21.571932 0 0 1 11.602082 13.896031c3.485036-3.088007 3.661494-35.379734 0.617602-46.143643z" fill="#DA4054"/><path d="M306.109691 101.540939a16.763465 16.763465 0 0 0-14.116602-4.411439 61.760134 61.760134 0 0 0-17.645752 0c-6.396585 0.882288-18.836841 1.323431-21.792505 8.117047a1.279317 1.279317 0 0 0 0 1.499889c2.911549 2.999778 5.73487 2.205719 9.881622 2.205719 12.263798 0 16.41055 4.63201 24.042337 12.749056 4.411438 4.808468 10.190422 7.984703 15.528263 2.426291s8.999334-16.145864 4.102637-22.586563z" fill="#F098AE"/><path d="M301.389452 105.290661a8.55819 8.55819 0 0 0-6.925958-2.646863 15.837063 15.837063 0 0 0-2.735091-0.529372c-5.161383-0.661716-10.278651-0.926402-15.484148-1.764576s-12.793171-2.51452-15.395919 2.823321a1.852804 1.852804 0 0 0 1.544003 2.735091c9.881621 0.308801 17.645752 0.352915 26.468629 4.940811 3.308579 1.720461 6.837729 3.661494 10.36688 1.235203a5.029039 5.029039 0 0 0 2.161604-6.793615zM287.625765 192.593021a3.705608 3.705608 0 0 0-4.764353 2.029262A30.880067 30.880067 0 0 0 277.920601 201.415898a17.645752 17.645752 0 0 0-3.617379 9.219905c0.529373 7.675902 7.720017-2.690977 8.822876-4.190866 2.11749-2.470405 9.793393-11.116824 4.499667-13.851916z" fill="#F7C7D5"/><path d="M644.069965 482.424506c-21.395475-4.411438-42.261577-6.970072-63.833509-3.61738-7.14653 1.10286-27.262688 0.397029-26.468629 11.646197 0.573487 9.661049 27.527374 17.645752 35.291505 18.792726 10.631566 1.279317 21.704276-1.191088 32.379956-0.926402 16.101749 0.352915 27.395031 8.381732 42.085119 12.793171 8.337618 2.558634 26.468629 9.572821 30.262466-0.617601 1.896918-4.984925-13.234314-14.557746-18.836841-19.454442-11.028595-9.175791-11.602082-14.822432-30.880067-18.616269zM416.880902 381.57903a25.762799 25.762799 0 0 0-23.821766 4.940811c-7.808245 4.411438-13.940144 12.925514-12.837285 21.086674a71.553526 71.553526 0 0 0 6.131899 17.645753c1.41166 3.352693 2.646863 8.469961 6.087785 10.499222 6.087785 3.573265 16.675236-1.41166 20.64553-6.308356a60.21613 60.21613 0 0 0 3.882066-7.234759c1.80869-2.911549 4.411438-4.984925 6.573043-7.764131a20.64553 20.64553 0 0 0 3.485036-9.837507c0.882288-8.072932-1.941033-19.807357-10.146308-23.027707zM493.816383 461.205488A88.228762 88.228762 0 0 0 446.437538 436.810236c-9.131677-1.323431-36.35025 0.441144-33.615159 15.440033 1.323431 7.234759 14.822432 13.234314 20.072044 16.939922 12.219684 8.337618 24.483482 15.351805 39.702943 16.542893 16.01352 1.367546 36.394364-7.764131 21.219017-24.527596zM386.397865 336.538247a36.173793 36.173793 0 0 0-10.278651-0.352915c-10.322765-0.264686-13.719573-3.308579-17.645753-12.440255-3.22035-7.85236-0.573487-18.263354-5.690755-25.233426-9.705164-13.234314-35.291505-7.278873-39.967629 1.985147a15.881177 15.881177 0 0 0 0 13.234314c4.411438 11.910883 8.072932 13.234314 8.028817 29.115492 0 11.646197 1.499889 22.674792 12.087341 29.865436 11.646197 7.940589 20.513187-2.338062 31.541782-6.043671 9.925736-3.308579 26.468629-1.632232 31.850584-13.234314 3.705608-7.896474-2.338062-14.690089-9.925736-16.895808z" fill="#F098AE"/><path d="M346.871379 300.276226a21.74839 21.74839 0 0 0-11.866768-2.867435 15.925292 15.925292 0 0 0-12.616713 4.014409c-1.852804 1.941033-2.338062 4.411438 0 6.087784a6.705386 6.705386 0 0 0 5.073154 0 28.762577 28.762577 0 0 1 10.102193 0c2.867435 0.397029 8.514076 1.323431 10.763909-1.367545s0.397029-4.543781-1.455775-5.867213zM412.645922 386.696299c-2.779206-2.82332-8.205275-0.70583-11.160939 0.529372a28.762577 28.762577 0 0 0-4.720239 2.51452 30.880067 30.880067 0 0 0-11.866768 10.719794c-1.10286 1.80869-3.308579 5.911327-0.264686 7.278873s6.4407-4.940811 8.293503-6.573042c5.293726-4.720239 12.528484-4.058523 18.131011-7.720017 2.338062-1.499889 3.882066-4.367324 1.588118-6.7495zM467.921241 453.750158c-7.367102-9.837507-28.806691-13.234314-46.452443-7.720017-3.22035 1.014631-1.235203 5.73487 1.499889 7.102416s9.572821-0.661716 12.749056-0.926402a37.45311 37.45311 0 0 1 20.380844 2.735091c3.837951 1.764575 9.087563 5.161383 11.822654 0.39703a1.588118 1.588118 0 0 0 0-1.588118z" fill="#F7C7D5"/><path d="M206.543533 353.78697c-5.602526-0.485258-6.705386 11.690311-10.675681 26.468629a110.506525 110.506525 0 0 1-19.189755 37.276652 80.729318 80.729318 0 0 1-77.597197 33.659273c-20.292615-2.999778-36.438479-1.896918-35.026819 23.16005 0.70583 12.352027 2.867435 32.159384 18.704498 23.380622 7.45533-14.381288 23.512965-24.307024 38.600084-3.264464 5.161383 7.14653 5.911327 26.468629 7.411216 35.95322 1.676346 10.058079 3.485036 24.615825 10.763909 32.468185 19.277985 20.689645 24.615825-8.822876 23.689422-24.483482-0.397029-6.7495-2.249833-12.837285-3.043892-19.54267-2.646863-23.115936 6.705386-32.909328 15.70472-50.687424S189.691839 430.016621 199.044088 412.106182c3.308579-6.484814 30.350694-56.334065 7.499445-58.319212zM879.817218 580.181974c-4.411438-8.381732-20.204387-11.910883-28.49789-15.131232a147.959634 147.959634 0 0 0-30.130122-9.925736c-12.396141-4.852582-27.747946-8.072932-30.174237 7.411216a27.79206 27.79206 0 0 0 7.058301 21.660161c9.616935 8.205275 30.438923 0.352915 41.68809 1.499889 4.852582 0.485258 53.113715 18.307468 40.055858-5.514298z" fill="#F098AE"/><path d="M89.728651 306.05521c-3.352693 0-5.690755 3.22035-7.278873 5.690755a34.718018 34.718018 0 0 0-2.161604 4.411438 14.734203 14.734203 0 0 0-4.411438 12.749056 3.52915 3.52915 0 0 0 4.411438 2.999778c3.573265-1.058745 5.205497-6.352471 6.793614-9.175791s11.337396-16.145864 2.646863-16.675236zM177.780956 424.634666a74.420961 74.420961 0 0 1-5.734869 11.381511c-1.720461 2.161605-3.440922 4.411438-5.337841 6.352471a139.974931 139.974931 0 0 0-14.998889 15.263575 1.896918 1.896918 0 0 0 0.661716 2.602749c7.014187 4.411438 15.351805-4.411438 19.54267-9.440478a144.871628 144.871628 0 0 0 13.719573-23.336507c-0.044114-8.778762-7.234759-4.234981-7.85236-2.823321zM120.476375 462.793606a25.145197 25.145197 0 0 0-26.998001 2.82332 2.646863 2.646863 0 0 0 1.146974 4.411439 50.863882 50.863882 0 0 0 26.468628-2.029262c2.867435-1.014631 2.161605-3.970294-0.617601-5.205497zM256.701584 454.897132a2.690977 2.690977 0 0 0-4.411438 0c-0.617601 1.235203-1.367546 2.602748-2.073376 4.058523-4.102637 6.176013-10.102193 18.616269-2.029261 18.439811 3.705608 0 7.278873-5.999556 8.822876-8.822876a13.631344 13.631344 0 0 0-0.308801-13.675458zM242.05561 493.85013c-0.70583-2.955664-7.896474-5.029039-10.587452 14.513632a23.16005 23.16005 0 0 0 5.073154 18.307468c3.617379 3.308579 6.837729 1.014631 7.808245-3.088007a67.318546 67.318546 0 0 0-2.293947-29.733093zM604.367022 488.600519a58.054526 58.054526 0 0 0-10.543337-1.852804 25.67457 25.67457 0 0 0-22.498334 2.82332 2.426291 2.426291 0 0 0 0 4.102638c9.96985 5.381955 22.498334 1.764575 33.041671 0 2.911549-0.220572 2.51452-4.411438 0-5.073154zM676.449921 337.861679a12.704942 12.704942 0 0 0-7.587674 1.941032 15.351805 15.351805 0 0 0-10.455108 14.29306 2.911549 2.911549 0 0 0 4.411438 2.470405c3.793837-2.602748 7.675902-5.161383 11.425625-7.85236a11.249167 11.249167 0 0 0 5.117268-6.881843 3.22035 3.22035 0 0 0-2.911549-3.970294z" fill="#F7C7D5"/><path d="M234.51205 139.082277c-5.867213-8.514076-33.52693-18.880955-30.483037-30.880067-14.954775 7.45533-32.42407 23.645308-37.585453 27.48326 9.572821-3.088007 32.115269-13.013742 42.923293-4.190867 3.308579 2.82332 7.764131 5.911327 11.910883 9.484592 22.586563 22.895364-7.940589 48.966963-5.955441 77.420739a2.82332 2.82332 0 0 0 4.190866 2.426291c7.234759-3.882066 7.102415-10.587451 9.26402-18.52804 3.52915-13.234314 8.205275-26.733315 9.219905-40.408773 0.573487-8.117046 1.279317-15.969406-3.485036-22.807135zM158.194171 285.71848c3.970294-5.558412 7.896474-7.720017 7.234758-14.60186a3.440922 3.440922 0 0 0-4.411438-3.264464c-11.513853 3.749722-16.542893 11.954997-20.248501 23.380622a296.095726 296.095726 0 0 0-7.896474 32.953442c-1.058745 4.146752-6.484814 30.218351-9.26402 38.55597-8.117046 24.218795-42.879179 40.673459-76.714909 10.587451C37.497224 364.903794 30.041894 347.434499 27.174459 339.758597c-1.80869 7.190644-0.882288 22.057191-2.955664 33.703387a109.183093 109.183093 0 0 1-9.837507 27.571488c5.778984-3.308579 33.83573-11.249167 53.687202-4.94081 12.749056 4.102637 31.144753 6.264242 35.909106 4.411438 11.954997-4.896696 31.100639-27.483259 44.114382-23.248279 3.088007 1.014631 12.263798 8.469961 14.20483 6.396585 5.558412-5.955441-6.528928-11.116824-12.043226-19.23387-7.190644-10.631566-10.631566-11.646197-10.896252-22.057191a91.007968 91.007968 0 0 1 3.22035-19.807357 97.051639 97.051639 0 0 1 15.616491-36.835508zM866.715247 637.839471c-7.720017-10.808023-21.04256-13.763687-33.041671-16.895808-26.248057-6.881843-70.58301-18.086896-77.111939-33.52693-4.896696-11.734425-7.278873-20.689645-16.631121-19.189756-11.07271 1.80869-16.322321 5.514298-38.908885-0.264686-12.219684-3.132121-23.292393-6.925958-35.776763-9.528707-23.292393-4.808468-58.628013-20.821988-70.58301-25.012854-17.381066-6.264242-36.703165-4.411438-55.58412-5.161382-58.451555-2.426291-74.994448-15.969406-85.273099-18.439812-55.58412-13.234314-93.169573-28.409661-109.227208-55.098862-7.322987-12.131455-9.616935-24.57171-22.05719-34.54156a120.785176 120.785176 0 0 1-23.248279-20.954331 94.051861 94.051861 0 0 1-15.572377-25.542227 218.674988 218.674988 0 0 1-9.925735-48.525819 55.98115 55.98115 0 0 0-3.882066-17.292838c-10.587451-15.263576-15.351805-8.822876-14.778318-5.64664a248.187509 248.187509 0 0 0 13.234315 46.231871c0 0.308801 0.308801 0.352915 0.485258 0.573487 1.10286 4.764353 2.205719 9.528706 3.22035 14.337174v0.308801c-1.058745 22.057191-29.997779 0.838173-37.144309 18.616268a4.102637 4.102637 0 0 0 2.867435 5.073154 54.481261 54.481261 0 0 0 16.278206-0.397029 30.880067 30.880067 0 0 1 17.645753 1.544003c16.41055 6.176013 19.013298 21.616047 22.674792 27.130345 10.455108 22.983593 28.939034 38.820655 40.894031 49.84925 8.249389 7.675902 19.410328 9.881621 33.350472 28.100861a25.498112 25.498112 0 0 1 6.087785 21.04256c-1.367546 10.808023-9.26402 17.645752-12.440256 27.262688a2.867435 2.867435 0 0 0 0.749945 2.867434c5.470183 4.411438 15.748834-1.544003 19.542671-6.131899s4.764353-11.469739 7.808245-16.939922a22.674792 22.674792 0 0 1 17.645753-12.616713c13.499001 4.896696 27.880289 8.381732 40.320544 11.557968 21.04256 5.381955 41.467518 14.954775 62.818879 16.498778 7.45533 0.529373 14.778318 0.794059 22.05719 0.970517 9.96985 1.058745 19.851472 0.970516 29.953665 1.058745a162.649723 162.649723 0 0 1 49.187535 9.616935c9.087563 3.882066 18.042782 8.337618 27.659717 12.263798 18.92507 7.631788 39.702943 9.837507 58.760356 16.587007 3.22035 1.10286 28.89492 1.544003 36.394364 27.395031 0.794059 2.82332 1.676346 6.04367 4.896697 6.793615a6.837729 6.837729 0 0 0 7.675902-4.764353c7.058301-19.763243 41.996891 20.116158 61.760134 27.350916 7.102415 2.602748 14.60186 3.705608 21.792504 6.176013 21.836619 7.499445 16.278207 29.336063 5.117268 45.129012-5.558412 7.85236-9.396363 9.96985-6.970072 19.719129a4.676124 4.676124 0 0 0 7.764131 2.073375c14.204831-17.469295 47.467074-44.511411 29.512521-69.656607zM308.271296 592.136972c-4.190866-5.823098-10.896252-4.808468-16.895808-2.911549-23.204165 7.234759-56.378179 28.806691-81.346919 12.396141-10.36688-11.205053-14.204831-28.453776-19.322099-42.746836s-9.131677 5.161383-7.940589 11.425625c3.793837 19.719128 3.043892 19.6309-4.720239 29.291949-6.617157 8.205275-2.293948 9.572821-2.470405 19.851472-0.617601 37.320766-36.879623 29.688979-57.348695 47.908218-8.822876 8.072932-7.45533 26.027485-23.336508 36.923737s-34.276874 22.674792-40.099973 13.234314c1.191088 13.234314 11.866769 24.615825 19.498557 32.512299-0.397029-9.572821 12.08734-26.821544 16.895808-30.880067 3.176235-2.735092 7.45533-4.411438 10.719795-7.014186a66.171572 66.171572 0 0 0 10.058078-10.984481c6.087785-7.984703 10.146308-18.439811 17.910439-25.056969 9.661049-8.293504 22.057191-8.822876 33.571044-13.234314 15.175347-5.514298 17.248723-13.631344 26.468629-25.806913 21.130789-27.571488 45.746613-3.882066 71.729984-9.352249 7.764131-1.632232 11.293282-13.234314 17.645752-17.645753 7.190644-4.808468 19.013298 1.455775 25.586341-3.396807 5.514298-3.661494 7.499445-8.778762 3.396808-14.513631zM108.830178 568.579892c-4.411438-18.483926-0.838173-34.188645-1.41166-52.496113 0-5.029039-0.617601-10.631566-6.087784-12.131455a2.646863 2.646863 0 0 0-2.91155 1.191088c-3.396807 5.293726-2.779206 12.440255-2.646862 18.439811 0.264686 14.645975-16.101749 44.114381-20.072044 47.378846a84.390811 84.390811 0 0 1-22.542449 14.469517c-6.617157 2.382177-14.072488 2.382177-20.513187 5.073154-0.352915 0-0.661716 0.441144-1.014631 0.617601a16.542893 16.542893 0 0 0-6.440699 3.132121C17.645752 600.562819 19.807357 612.870731 30.571266 613.26776c8.072932 0.264686 16.278207-8.337618 23.733537-10.852137a178.442672 178.442672 0 0 0 24.130567-8.161161h0.397029c9.793393-1.41166 19.542671 8.205275 27.924403 0.838173s4.102637-17.998668 2.073376-26.512743z" fill="#DA4054"/><path d="M399.014578 555.56615c-15.484148-4.411438-38.379512 4.146752-36.482593 14.425402a1.676346 1.676346 0 0 0 1.191088 1.235203c3.308579 1.146974 6.087785-1.588118 8.822876-2.82332 8.822876-3.705608 13.763687-0.573487 21.660161 2.382176 4.411438 1.676346 13.940144 4.411438 16.145864-2.51452 2.11749-6.131899-6.881843-11.425625-11.337396-12.704941z" fill="#F7C7D5"/><path d="M828.909222 794.621981c-16.454664-19.498556-24.96874-31.982926-37.05608-40.673459a181.75125 181.75125 0 0 0-30.218351-15.616491c-13.719573-6.352471-23.115936-18.042782-2.029261-58.80447 1.588118-3.043892-4.411438-5.867213-6.970073-4.014409-6.04367 4.190866-10.278651 9.352249-15.969406 13.499001-20.116158 14.469517-34.188645 18.92507-58.275097 14.778317-22.321877-3.837951-56.28995 2.205719-76.141422-10.719794-2.690977-5.955441-0.573487-15.043004-0.882288-23.55708s-5.955441-5.426069-7.543559-0.749944c-5.426069 15.792948-12.749056 19.322099-19.675014 21.130788-4.896696 1.235203-14.116602-2.426291-19.366213-3.396807-10.940367-1.985147-22.057191-4.146752-32.732871-6.264242s-20.866102-11.469739-15.528262-28.233204c2.249833-7.014187 10.67568-13.940144 10.67568-29.424292 0-13.234314-8.822876-9.043448-12.08734-1.323432-2.338062 5.646641-7.587674 16.278207-9.484592 22.057191a41.732205 41.732205 0 0 1-29.027263 28.409661c-19.101527 4.940811-35.291505 3.92618-56.554637 1.985148-22.851249-2.11749-44.114381-4.764353-70.009523 9.661049-11.866769 3.264464-28.586119 11.557968-40.27643 14.866546-13.234314 2.029262-28.939034 7.102415-40.364659-0.352915s-17.954553-24.218795-29.953664-27.836174c-1.764575-0.529373-4.058523 1.367546-3.264465 3.264464 6.4407 15.263576 21" fill="#DA4054"/></svg>