<?xml version="1.0" standalone="no"?><!DOCTYPE svg PUBLIC "-//W3C//DTD SVG 1.1//EN" "http://www.w3.org/Graphics/SVG/1.1/DTD/svg11.dtd"><svg class="icon" width="200px" height="186.52px" viewBox="0 0 1098 1024" version="1.1" xmlns="http://www.w3.org/2000/svg"><path d="M1098.21324 817.059233L178.397213 1024 0 206.227178 919.816028 0z" fill="#1D2088" /><path d="M1068.242509 800.64669L199.091289 995.456446 30.684321 223.35331 899.121951 28.543554z" fill="#E60012" /><path d="M1004.733101 675.768641L209.081533 853.452265l-110.606272-506.648084 795.651568-176.970035z" fill="#1D2975" /><path d="M78.06662 266.268544l35.807889-9.726216 14.963958 55.096195-35.815024 9.726216zM185.104948 237.717854l35.815024-9.726216 14.956822 55.096195-35.807888 9.726216zM285.007387 216.310188l35.82216-9.726216 14.956822 55.089059-35.815024 9.726216zM392.05285 194.895387l35.815025-9.726216 14.956822 55.089059-35.807889 9.733352zM499.098314 166.344697l35.807888-9.726216 14.963958 55.089059-35.815024 9.733352zM606.136641 144.929895l35.815025-9.726216 14.963958 55.096196-35.815025 9.726216zM713.182105 123.52223l35.807888-9.726216 14.963958 55.089059-35.807888 9.726216zM813.084544 94.97154l35.815024-9.726216 14.963958 55.089059-35.815024 9.726216zM213.677045 887.119387l35.815025-9.726216 14.956822 55.089059-35.807889 9.726216zM320.722509 858.568697l35.807888-9.726216 14.963958 55.089059-35.815024 9.733352zM420.624948 837.153895l35.815024-9.726216 14.956822 55.08906-35.807888 9.733352zM527.670411 815.739094l35.807889-9.726216 14.963958 55.096195-35.807889 9.726216zM634.708739 787.188404l35.815024-9.726216 14.963958 55.096195-35.815024 9.726216zM741.754202 765.780739l35.807889-9.726216 14.963958 55.089059-35.807889 9.726216zM848.79253 744.365937l35.815024-9.726216 14.963958 55.089059-35.815024 9.733352zM948.702105 715.815247l35.807888-9.726216 14.963958 55.08906-35.807888 9.733352z" fill="#1D2088" /></svg>