<?xml version="1.0" encoding="UTF-8" standalone="no"?><!DOCTYPE svg PUBLIC "-//W3C//DTD SVG 1.1//EN" "http://www.w3.org/Graphics/SVG/1.1/DTD/svg11.dtd"><svg width="100%" height="100%" viewBox="0 0 2224 1668" version="1.1" xmlns="http://www.w3.org/2000/svg" xmlns:xlink="http://www.w3.org/1999/xlink" xml:space="preserve" xmlns:serif="http://www.serif.com/" style="fill-rule:evenodd;clip-rule:evenodd;stroke-linejoin:round;stroke-miterlimit:2"><g transform="matrix(0.995822,0.0913127,-0.0913127,0.995822,80.3643,-79.8985)"><path d="M565.56,902.335C565.558,903.469 566.302,904.288 567.219,904.528C568.799,905.311 570.672,904.027 570.422,902L570.42,901.963C570.529,901.511 570.596,900.995 570.612,900.408C570.759,895.114 569.979,880.73 569.632,879.342C567.772,871.919 569.352,850.87 565.827,838.172C565.256,836.114 564.616,834.224 563.714,832.67C560.849,827.737 556.577,825.344 550.589,827.568C549.651,827.839 549.11,828.819 549.381,829.757C549.652,830.694 550.633,831.235 551.57,830.964C555.352,830.17 557.452,832.097 558.961,835.201C559.59,836.495 560.188,837.963 560.645,839.611C564.16,852.269 562.522,873.256 564.368,880.658C564.697,881.971 564.731,895.603 565.209,900.591C565.274,901.262 565.394,901.841 565.56,902.335Z"/></g><g transform="matrix(0.995822,0.0913127,-0.0913127,0.995822,80.3643,-79.8985)"><path d="M572.319,828.998C571.324,829.97 570.258,831.113 569.184,832.23C568.179,831.627 567.185,831.988 566.602,832.602C564.675,834.545 565.029,840.917 567.077,848.583C567.96,851.889 569.07,855.475 570.244,859.016L570.277,860.282C570.357,862.85 570.515,865.425 570.695,868L570.429,868L570.409,872C570.399,874.078 570.357,876.307 570.318,878.619L569.516,905C569.516,906.524 570.273,907.108 570.417,907.231C570.543,907.339 570.902,907.51 571.363,907.615C571.302,908.611 571.241,909.592 571.247,910.393C571.258,911.984 571.627,913.168 572.007,913.701C572.6,914.534 573.376,914.914 574.25,914.958C574.417,914.967 574.607,914.964 574.814,914.934C575.179,915.749 575.589,915.991 576,915.744C576.724,916.18 577.447,915.091 577.928,912.025C578.276,911.176 578.585,910.114 578.855,908.871C579.783,908.713 580.673,908.056 580.819,906.352C580.865,905.823 580.761,904.347 580.678,903.003C581.08,905.412 581.519,907.549 581.985,909.111C582.947,912.335 584.961,913.578 586,913.582C587.751,913.589 588.746,912.844 589.352,911.935C589.851,911.187 590.11,910.137 589.925,908.827C589.574,906.33 586.623,901.748 586.634,899C586.649,895.232 586.432,891.657 586.064,888.198C585.181,879.888 583.543,872.262 583.476,864C583.431,860.039 581.721,851.851 581.64,845.552C581.606,842.917 581.674,840.665 582.684,839.684C583.113,839.269 588.647,833.141 590.758,829.13C592.188,826.41 591.763,824.112 590.821,823.179C589.307,821.683 586.541,821.047 582.983,821.474C579.545,821.886 575.181,823.048 570.945,824.345C566.794,825.617 562.801,827.051 559.817,827.244C558.842,827.253 558.057,828.053 558.067,829.029C558.077,830.004 558.877,830.789 559.852,830.779C563.096,830.924 567.628,830.111 572.215,829.023L572.319,828.998ZM575.391,841.243C575.063,841.456 574.99,841.651 575.437,841.768C575.428,841.567 575.407,841.367 575.391,841.243ZM576.435,840.757C576.06,840.897 575.712,841.048 575.47,841.195C575.59,841.298 575.814,841.484 576.061,841.656C576.226,841.48 576.347,841.168 576.435,840.757ZM576.407,832.14C575.032,833.377 573.459,835.108 571.897,836.659L571.897,836.704C572.57,838.367 573.146,840.022 573.266,840.41C573.852,838.866 574.785,837.781 575.521,837.378C575.84,837.202 576.216,837.068 576.616,837.002C576.569,835.139 576.421,833.202 576.407,832.14ZM581.511,834.19C584.415,831.3 588.888,826.427 586.607,825.732C586.047,825.561 586.943,826.582 587.179,826.821C586.5,826.134 585.168,826.357 583.55,826.526C582.513,826.634 581.391,826.831 580.212,827.085C581.011,827.991 581.581,829.526 581.596,832C581.594,832.574 581.563,833.334 581.511,834.19Z"/></g><g transform="matrix(0.995822,0.0913127,-0.0913127,0.995822,80.3643,-79.8985)"><path d="M622.522,835.339C621.003,835.334 619.363,835.547 617.628,835.965C613.397,836.982 608.496,839.127 603.654,841.526C601.437,842.084 599.225,842.441 597,842.454C595.595,842.454 594.454,843.595 594.454,845C594.454,845.414 594.553,845.805 594.731,846.149C593.413,846.846 592.141,847.517 590.932,848.139C587.956,849.672 585.451,850.975 583.577,851.365C582.966,851.492 582.497,851.919 582.314,851.52C581.954,850.613 580.925,850.169 580.018,850.53C579.112,850.89 578.668,851.919 579.028,852.825C579.754,854.963 582.125,855.778 585.834,854.937C587.638,854.528 589.853,853.771 592.302,852.715C596.385,850.953 601.178,848.437 605.982,846.17C611.586,844.622 617.271,842.138 623.248,840.731C624.345,840.847 625.285,841.226 626.024,841.976C628.488,844.448 629.508,849.963 630.278,856.527C631.846,869.889 631.555,887.391 633.712,896.849C634.471,900.174 635.613,902.636 636.989,904.011C638.286,905.307 639.606,905.298 640.935,904.22C641.279,903.942 642.037,902.94 642.387,901.184C643.13,897.458 643.834,887.795 643.833,886C643.828,877.923 645.295,865.732 644.61,855.451C644.259,850.182 643.333,845.389 641.508,841.746L638.586,834.981C638.055,833.634 636.579,832.92 635.194,833.34L631,834.248C628.429,834.262 625.924,834.588 623.473,835.121C623.155,835.19 622.837,835.262 622.522,835.339ZM631.32,839.692C633.098,842.371 634.393,846.42 635.229,851.302C637.013,861.723 637.061,876.183 638.055,887.124L638.099,887.59C638.144,886.864 638.167,886.307 638.167,886C638.172,878.021 639.659,865.979 638.996,855.821C638.707,851.383 638.024,847.325 636.492,844.254L634.312,839.129L631.32,839.692Z"/></g><g transform="matrix(0.989814,0.156841,-0.0913127,0.995822,84.1627,-121.322)"><path d="M656.171,831.329C652.104,831.752 641.063,832.17 635.172,834.486C632.192,835.657 630.352,837.428 629.764,839.308C629.215,841.064 629.505,843.35 632.007,846.001C633.117,847.178 634.831,847.679 637.132,847.373C638.289,847.219 639.67,846.823 641.225,846.214L641.451,846.213C644.856,846.124 648.6,845.009 652.477,843.646C660.05,840.982 668.168,836.651 675.251,832.829L679.021,831.925C679.353,831.845 679.71,831.659 679.99,831.53C679.803,831.392 679.601,831.205 679.45,831.067C679.68,831.235 679.943,831.36 680.229,831.434C680.159,831.455 680.078,831.49 679.99,831.53C680.279,831.75 680.531,831.856 680.492,831.488L680.491,831.487L680.255,831.442L680.229,831.434L680.342,831.401C680.406,831.398 680.433,831.397 680.477,831.44L680.491,831.487C680.656,831.51 680.826,831.517 681,831.505C682.383,831.414 683.505,830.218 683.505,828.835C683.524,828.713 683.529,828.581 683.514,828.443C684.083,828.154 684.635,827.879 685.171,827.619C685.258,827.577 685.528,827.547 685.844,827.496L686.452,827.657C686.658,827.727 686.865,827.797 687.071,827.867L687.159,827.904C688.84,830.658 689.712,834.701 690.31,839.243C691.998,852.068 690.971,868.728 693.008,876.933C693.548,879.103 694.008,882.284 694.344,885.453C694.694,888.762 694.905,892.059 694.903,894.204C694.902,896.125 695.505,900.85 695.817,902.12C696.42,904.571 698.636,904.609 699.013,904.576C699.344,904.548 702.101,904.047 702.104,900.796L702.104,899.985C702.211,899.706 702.192,899.246 702.105,898.693L702.126,869.794L701.13,847.794C701.131,832.127 696.773,824.733 690.44,822.098L690.171,821.82C689.493,821.155 688.497,820.728 687.218,820.823C686.893,820.848 686.528,820.921 686.152,821.026C684.61,820.857 682.998,820.879 681.34,821.056C673.712,821.87 664.533,826.556 656.171,831.329ZM644.491,838.106C642.766,838.315 641.068,838.575 639.516,838.899C638.069,839.202 636.757,839.501 635.742,839.977C635.293,840.188 634.85,840.283 634.703,840.599C634.669,840.673 634.861,840.641 634.912,840.737C635.128,841.137 635.504,841.537 635.993,841.999C636.058,842.059 636.135,841.867 636.25,841.856C636.572,841.826 636.924,841.729 637.31,841.614C638.739,841.188 640.448,840.305 642.419,839.247C643.087,838.888 643.779,838.507 644.491,838.106ZM679.2,830.858L679.102,830.756L679.082,830.767L679.131,830.809L679.2,830.858Z"/></g><g transform="matrix(0.995822,0.0913127,-0.0913127,0.995822,80.3643,-79.8985)"><path d="M755.711,866.476C774.46,859.55 820.637,864.274 804,831C788.708,800.415 737.217,859.217 762,884C774.032,896.032 799.412,887.588 808,879C809.333,877.667 812,875 812,875C812,875 810.667,877.667 810,879C805.641,887.718 791.613,889 782,889C773.234,889 762,879.118 762,881" style="fill:rgb(0,255,232)"/></g><g transform="matrix(0.995822,0.0913127,-0.0913127,0.995822,80.3643,-79.8985)"><path d="M792.065,891.154C795.258,890.775 798.466,890.146 801.382,889.151C806.361,887.452 810.484,884.644 812.728,880.364L814.809,876.405C815.498,875.027 815.086,873.353 813.837,872.452C812.587,871.551 810.868,871.69 809.779,872.779L805.707,876.707C801.64,880.77 793.443,884.692 784.979,886.159L784.158,886.288C783.419,886.309 782.697,886.32 782,886.325C775.866,886.416 768.536,880.967 765.06,879.381C763.857,878.832 762.948,878.614 762.461,878.646C762.188,878.664 761.934,878.693 761.7,878.738C759.496,875.452 758.461,871.707 758.336,867.761C760.069,867.504 761.953,867.359 763.961,867.104C765.625,866.893 767.347,866.575 769.125,866.305C779.722,864.692 791.951,863.131 800.092,858.924C809.652,853.984 814.593,845.656 806.6,829.7C797.437,811.346 776.358,820.231 763.221,838.044C752.14,853.07 747.292,873.624 759.781,886.219C765.113,891.601 772.758,893.553 780.715,893.161C784.522,892.973 788.389,892.246 792.065,891.154ZM758.57,863.211C759.904,862.662 761.336,862.156 762.872,861.725C764.549,861.256 766.345,860.956 768.182,860.626C778.132,858.836 789.726,857.695 797.4,853.721C804.355,850.119 807.2,843.922 801.4,832.3C794.186,817.894 778.204,827.479 767.954,841.517C763.185,848.049 759.528,855.801 758.57,863.211Z"/></g><g transform="matrix(0.995822,0.0913127,-0.0913127,0.995822,80.3643,-79.8985)"><path d="M862.401,804.149C860.204,806.892 857.15,810.353 855.621,813.059C854.032,815.871 854.116,818.26 855.443,819.557C857.638,821.768 858.776,826.745 859.545,832.628C860.559,840.375 860.694,849.653 860.641,857.132C860.292,857.01 859.905,856.986 859.521,857.083C858.462,857.347 857.818,858.421 858.083,859.479C858.573,861.691 858.988,864.665 859.34,867.664C860.072,873.897 860.489,880.228 860.489,880.228C860.611,881.57 861.768,882.579 863.114,882.518C864.461,882.457 865.521,881.348 865.521,880L865.511,868C865.463,861.341 865.809,844.662 864.018,832.019C863.065,825.295 861.398,819.676 858.949,816.864C859.497,816.635 859.518,815.243 860.212,814.266C862.656,810.826 866.904,806.688 868.546,804.24C870.096,801.93 869.547,800.01 868.769,799.231C867.996,798.479 866.654,797.971 864.803,798.309C862.407,798.747 858.411,800.712 855.005,801.8C854.027,802.112 853.113,802.316 852.34,802.389C851.933,802.428 851.565,802.883 851.404,802.538C851.121,801.604 850.133,801.076 849.199,801.359C848.266,801.642 847.737,802.63 848.021,803.564C848.405,805.876 850.266,806.864 852.907,806.871C855.532,806.877 859.267,805.276 862.401,804.149ZM864.412,801.417L864.524,801.236C864.588,801.125 864.757,800.973 864.671,800.943C864.3,800.811 864.281,801.059 864.412,801.417Z"/></g><g transform="matrix(0.995822,0.0913127,-0.0913127,0.995822,80.3643,-79.8985)"><path d="M853.114,819.183C852.96,818.158 852.811,817.132 852.673,816.102C852.213,812.67 851.855,809.21 851.751,805.676C851.739,804.7 850.937,803.918 849.961,803.93C848.986,803.942 848.204,804.744 848.216,805.72C848.2,809.388 848.437,812.988 848.806,816.562C849.651,824.753 851.189,832.788 851.719,841.175C852.065,845.928 851.871,850.489 852.083,855.134C852.177,857.186 852.349,859.254 852.667,861.359C853.264,865.297 853.81,869.181 854.167,873.086L854.226,874.89C854.363,878.751 854.492,881.428 854.556,882.326C855.536,896.037 859.419,899.639 859.397,882L859.397,881.979C859.971,881.828 859.576,879.948 859.275,877.487L859.157,875.503L858.992,873.444C858.626,863.605 858.103,847.26 857.807,832.806C858.161,835.383 858.513,837.989 858.773,840.543C858.997,842.754 859.149,844.925 859.176,847C859.176,848.007 859.993,848.824 861,848.824C862.007,848.824 862.824,848.007 862.824,847C862.853,844.822 862.746,842.542 862.581,840.215C862.218,835.076 861.533,829.714 861.173,824.802C860.088,813.467 859.271,807.042 858.71,804.271C858.168,801.6 856.559,800.983 856.173,800.964C855.604,800.937 854.344,801.16 853.853,802.859C853.623,803.654 853.405,805.627 853.288,808.474C853.174,811.253 853.12,814.938 853.114,819.183Z"/></g><g transform="matrix(0.995822,0.0913127,-0.0913127,0.995822,80.3643,-79.8985)"><path d="M884.968,823.827C879.5,824.705 872.624,826.524 867.253,828.086C863.539,829.166 860.623,830.178 859.441,830.3C858.467,830.343 857.71,831.169 857.754,832.144C857.797,833.119 858.623,833.875 859.598,833.832C862.375,833.808 874.766,830.675 884.081,829.384C886.733,829.016 889.107,828.789 890.867,828.908C891.418,828.946 892.349,828.836 892.186,829.146C892.171,829.176 892.147,829.168 892.123,829.143C892.085,829.091 892.043,829.044 892,829C892.032,829.032 892.08,829.109 892.123,829.143C892.573,829.717 892.805,830.762 893.089,832.045C893.718,834.882 894.056,838.718 894.245,842.82C894.68,852.293 894.281,863.134 894.298,867L894.313,873C894.313,874.484 895.516,875.687 897,875.687C898.21,875.684 899.894,874.814 900.507,872.263C901.471,868.248 900.697,857.042 900.698,856C900.723,849.962 903.338,833.896 899.907,826.376C897.633,821.394 893.422,818.802 885.95,822.9C885.523,823.114 885.189,823.441 884.968,823.827Z"/></g><g transform="matrix(0.995822,0.0913127,-0.0913127,0.995822,80.3643,-79.8985)"><path d="M902.563,820.455C898.765,821.729 895.877,823.029 894.581,823.628C893.66,823.962 893.184,824.98 893.518,825.901C893.852,826.821 894.871,827.297 895.791,826.963C897.002,826.643 899.599,826.224 902.895,825.482C907.632,824.416 913.762,822.786 919.482,821.696C923.621,820.906 927.514,820.32 930.397,820.206C931.617,820.157 933.453,819.734 933.242,820.374C933.222,820.435 933.181,820.429 933.132,820.392C933.053,820.295 932.97,820.203 932.884,820.116C932.94,820.173 933.047,820.329 933.132,820.392C934.833,822.434 935.224,826.6 935.417,831.452C935.865,842.698 933.952,857.41 933.951,864L934.938,870.071C934.969,870.319 934.991,870.464 934.991,870.464L935.002,870.462L935.048,870.743C935.445,872.32 937.011,873.307 938.604,872.984C940.198,872.661 941.257,871.143 941.009,869.536L940.885,865.962C942.584,860.828 943.878,848.123 943.694,836.656C943.559,828.273 942.572,820.552 940.628,816.686C939.694,814.828 936.478,813.273 931.775,813.266C922.53,813.253 906.606,817.183 904.592,817.553C903.242,817.778 902.328,819.057 902.553,820.408L902.563,820.455Z"/></g><g transform="matrix(0.995822,0.0913127,-0.0913127,0.995822,80.3643,-79.8985)"><path d="M965.602,836.825C980.582,838.699 1027.21,823.912 1002,805C978.093,787.07 959.786,839.179 971,856C977.512,865.768 1000.36,864.585 1008,860C1010.68,858.392 1019.12,850.767 1017,855" style="fill:rgb(255,233,0)"/></g><g transform="matrix(0.995822,0.0913127,-0.0913127,0.995822,80.3643,-79.8985)"><path d="M965.263,835.091C964.534,835.232 963.945,835.829 963.848,836.606C963.747,837.415 964.21,838.165 964.931,838.459C964.405,846.061 965.488,853.072 968.527,857.648C971.532,862.225 977.522,864.949 984.301,866.016C993.783,867.507 1004.68,865.77 1009.69,862.823C1010.8,862.162 1013.25,859.178 1015.2,857.601C1015.32,857.688 1015.45,857.764 1015.58,857.832C1017.15,858.613 1019.05,857.979 1019.83,856.416C1021.23,853.997 1020.25,852.416 1019.83,851.813C1019.23,850.957 1017.22,849.791 1014.51,851.206C1012.36,852.33 1008.09,856.103 1006.31,857.177C1002.81,859.315 995.742,860.575 988.871,860.251C982.546,859.953 976.257,858.462 973.473,854.352C971.021,850.687 970.147,845.218 970.513,839.21C971.534,839.251 972.615,839.24 973.745,839.169C983.559,838.55 996.639,834.253 1004.52,828.47C1009.63,824.721 1012.55,820.097 1012.18,815.206C1011.89,811.341 1009.51,807.038 1003.73,802.697C991.918,793.831 981.186,799.362 973.878,810.56C969.394,817.43 966.359,826.46 965.263,835.091ZM1016.27,856.869C1016.63,856.977 1018.12,857.624 1017.74,856.994C1017.45,856.496 1016.92,856.524 1016.27,856.869ZM971.028,834.534C971.714,834.419 972.426,834.295 973.163,834.169C982.024,832.659 993.97,829.251 1001.11,823.879C1004.36,821.438 1006.69,818.777 1006.45,815.643C1006.25,812.986 1004.25,810.284 1000.27,807.303C991.666,800.855 984.032,805.551 978.728,813.718C974.928,819.568 972.172,827.203 971.028,834.534Z"/></g><g transform="matrix(0.995822,0.0913127,-0.0913127,0.995822,80.3643,-79.8985)"><path d="M1051.16,797.736C1050.84,797.396 1050.51,797.089 1050.16,796.817C1049.42,796.185 1048.3,796.276 1047.67,797.02C1047.04,797.763 1047.13,798.88 1047.87,799.511C1049.49,801.004 1050.36,803.546 1050.9,806.659C1050.49,808.089 1050.33,809.927 1050.48,812.052C1050.68,814.778 1051.29,818.092 1051.99,821.4C1052.13,830.322 1051.78,839.418 1052.59,844.402C1052.76,845.453 1052.96,846.527 1053.17,847.617C1052.77,851.78 1052.49,856.321 1052.7,860.317C1052.95,865.367 1054.11,869.595 1056.26,871.74C1057.27,872.745 1058.21,872.748 1058.77,872.664C1059.58,872.542 1060.33,872.115 1060.78,871.13C1060.98,870.702 1061.15,869.812 1061.05,868.663C1060.92,867.266 1060.46,865.097 1060.46,864C1060.46,861.938 1060.27,859.792 1059.97,857.614C1059.51,854.264 1058.79,850.835 1058.14,847.536C1058.62,842.706 1059.27,838.427 1059.47,836.225C1059.71,833.607 1058.11,827.123 1056.85,820.723C1056.76,817.319 1056.56,813.948 1056.12,810.853C1055.99,809.887 1055.83,808.947 1055.64,808.039C1055.68,807.947 1055.73,807.867 1055.8,807.801C1058.56,805.095 1063.85,803.298 1067.43,801.341C1068.86,800.561 1070.06,799.744 1070.91,798.909C1072.25,797.593 1071.95,793.389 1067.17,794.211C1065.78,794.452 1063.56,795.005 1061.27,795.595C1061.41,795.064 1061.36,794.481 1061.1,793.951C1060.52,792.792 1059.11,792.322 1057.95,792.901C1056.77,793.461 1052.41,796.164 1051.16,797.736ZM1054.18,802.478L1054.03,802.482L1054.07,802.595L1054.09,802.583L1054.24,802.472L1054.18,802.478ZM1053.86,797.434C1053.52,797.202 1053.22,797.113 1053.24,797.531C1053.25,797.675 1053.55,797.523 1053.86,797.434Z"/></g><g transform="matrix(0.995822,0.0913127,-0.0913127,0.995822,80.3643,-79.8985)"><path d="M1058.51,824.259C1058.82,823.994 1059.17,823.735 1059.54,823.539C1065.42,820.429 1076.85,816.258 1086.14,815.197C1088.53,814.924 1090.77,814.84 1092.69,815.089L1091.69,815.241C1086.01,816.176 1073.3,818.772 1066.01,821.177C1062.77,822.249 1060.55,823.394 1059.96,823.975C1059.18,824.733 1059,825.462 1059.12,826.007C1059.22,826.507 1059.77,827.985 1062.01,827.976C1062.88,828.04 1063.67,827.498 1063.94,826.706C1065.31,826.352 1067.25,826.029 1069.48,825.567C1076.72,824.073 1087.05,821.98 1092.24,821.259C1092.71,821.193 1093.2,821.205 1093.61,821.215C1094.93,823.588 1095.36,827.902 1095.69,832.598C1096.29,840.841 1095.91,850.276 1095.91,855C1095.91,855.461 1095.53,859.361 1096.2,861.227C1096.9,863.17 1098.3,864.086 1100,864.086C1103.14,864.084 1104.72,862.438 1105.3,859.719C1106,856.465 1103.78,849.982 1104.07,846.236C1104.41,841.699 1105.34,832.317 1104.86,824.654C1104.6,820.631 1103.92,817.048 1102.71,814.645C1101.21,811.658 1098.17,809.814 1094.02,809.184C1088.85,808.401 1081.71,809.456 1074.81,811.446C1063.98,814.57 1053.84,819.987 1052.27,822.312C1051.3,823.75 1051.46,825.003 1052.04,825.922C1052.47,826.605 1053.59,827.64 1056,827.613C1057.44,827.613 1058.61,826.442 1058.61,825C1058.61,824.742 1058.58,824.493 1058.51,824.259Z"/></g><g transform="matrix(0.995822,0.0913127,-0.0913127,0.995822,80.3643,-79.8985)"><path d="M1152.51,842.91L1152.5,843C1152.5,844.379 1153.62,845.499 1155,845.499C1155.58,845.516 1157.35,845.507 1159.79,845.436L1160.52,845.517C1163.24,845.769 1166.15,845.503 1169.28,844.959C1173.86,844.627 1178.65,844.098 1182.24,843.28C1185.16,842.615 1187.38,841.627 1188.53,840.652C1189.83,839.547 1190.33,838.254 1190.32,837C1190.32,835.488 1189.78,834.51 1189.16,833.852C1188.2,832.846 1186.67,832.212 1184.58,832.762C1182.41,833.336 1178.55,836.262 1176.22,836.867C1170.47,838.388 1165.46,839.829 1161,839.528C1158.1,839.332 1155.46,838.334 1153.04,835.965C1152.75,835.683 1152.68,834.975 1152.48,834.041C1152.04,832.038 1151.71,829.264 1151.43,825.969C1150.35,812.969 1150.4,792.164 1149.17,777.413C1148.76,772.466 1148.34,768.148 1147.45,765.079C1147.09,763.828 1146.62,762.828 1146.18,761.989C1145.87,761.065 1144.87,760.57 1143.94,760.883C1143.02,761.197 1142.52,762.202 1142.84,763.125C1142.94,763.772 1142.91,764.505 1143,765.359C1143.25,767.802 1143.58,771.01 1143.81,774.761C1144.62,788.578 1144.84,809.295 1145.65,823.331C1146.16,832.139 1147.47,838.522 1148.96,840.035C1150.11,841.202 1151.28,842.15 1152.51,842.91ZM1184.86,838.859C1185.51,839.351 1186.41,839.858 1186.24,839.179C1186.09,838.59 1185.58,838.567 1184.86,838.859Z"/></g><g transform="matrix(0.995822,0.0913127,-0.0913127,0.995822,80.3643,-79.8985)"><path d="M1147.76,794.184C1147.54,794.779 1147.56,795.458 1147.86,796.069C1148.45,797.249 1149.89,797.728 1151.07,797.138C1152.9,796.94 1153.44,795.936 1153.7,795.567C1154.33,794.67 1154.72,791.231 1151.2,791.1C1150.9,791.089 1150.61,791.032 1150.26,791.275C1149.66,791.693 1150.32,791.183 1149.89,791.835C1148.96,791.562 1147.97,792.1 1147.7,793.036C1147.59,793.43 1147.61,793.831 1147.76,794.184ZM1148.35,794.951C1148.55,796.045 1149.01,797.746 1149.65,796.653C1149.79,796.43 1149.17,796.368 1148.96,795.969C1148.65,795.376 1148.96,795.951 1148.9,795.229C1148.69,795.168 1148.51,795.074 1148.35,794.951ZM1148.28,793.345C1148.46,793.151 1148.68,792.988 1148.93,792.862C1149.17,792.57 1149.45,792.3 1149.3,792.174C1148.66,791.631 1148.38,792.547 1148.28,793.345Z"/></g><g transform="matrix(0.995822,0.0913127,-0.0913127,0.995822,80.3643,-79.8985)"><path d="M1169.78,789.38L1152,790.181C1151.29,790.182 1146.91,791.352 1145.62,792.245C1143.28,793.872 1143.83,795.818 1145.01,796.988C1146.53,798.47 1149.32,799.286 1152.89,799.165C1160.93,798.893 1173.73,794.448 1177,794.403C1178.33,794.403 1179.4,793.326 1179.4,792C1179.4,790.674 1178.33,789.597 1177,789.597C1176.88,789.596 1176.76,789.599 1176.62,789.608C1176.39,789.192 1176.05,788.903 1175.82,788.715C1175.28,788.284 1173.75,788.215 1171.93,788.716C1171.16,788.927 1169.77,788.87 1169.78,789.38ZM1149.47,796.284C1148.98,796.447 1148.65,796.65 1148.81,796.882C1149.07,797.255 1149.31,796.775 1149.47,796.284Z"/></g><g transform="matrix(0.995822,0.0913127,-0.0913127,0.995822,80.3643,-79.8985)"><path d="M1218.08,778.439C1219.38,777.816 1219.65,780.616 1220,782C1223.97,797.874 1217.91,819.814 1225,834C1230.53,845.058 1265.88,835.337 1273,830C1275.92,827.812 1273.52,773.761 1266,770C1260.7,767.352 1228.67,774.164 1223,777C1219.77,778.617 1218.53,779.842 1222,781C1223.04,781.347 1225.75,783 1224,783" style="fill:rgb(255,0,0)"/></g><g transform="matrix(0.995822,0.0913127,-0.0913127,0.995822,80.3643,-79.8985)"><path d="M1218.87,776.544C1218.4,776.448 1217.88,776.521 1217.32,776.844C1216.44,777.266 1216.07,778.322 1216.49,779.202C1216.66,779.554 1216.93,779.824 1217.25,779.994L1217.28,780.174L1217.28,780.181C1217.2,780.79 1217.84,781.923 1217.94,782.516C1218.36,784.745 1218.51,787.079 1218.64,789.491C1219.14,798.862 1218.05,809.358 1218.53,818.903C1218.83,824.916 1219.85,830.556 1222.21,835.395C1224.49,840.019 1230.78,842.323 1238.74,842.281C1252.06,842.211 1269.98,836.307 1274.94,832.588C1275.62,832.079 1276.78,830.138 1277.11,826.793C1277.76,820.16 1277.3,805.698 1275.75,792.9C1274.77,784.793 1273.34,777.347 1271.53,772.872C1270.34,769.91 1268.78,768.059 1267.33,767.342C1264.81,766.102 1256.85,766.454 1248.11,767.922C1237.26,769.746 1225.1,772.864 1221.78,774.55C1220.55,775.171 1219.59,775.859 1218.87,776.544ZM1270.08,828.057C1269.72,827.299 1270.83,825.01 1270.92,822.66C1271.21,815.459 1270.79,803.975 1269.63,793.613C1268.79,786.127 1267.6,779.234 1265.97,775.09C1265.5,773.91 1265.24,772.948 1264.67,772.658C1262.63,771.625 1256.17,772.479 1249.04,773.6C1239.11,775.159 1227.99,777.753 1224.5,779.321C1225.66,780.085 1226.84,781.118 1227.06,781.69C1227.56,782.98 1227.25,784.042 1226.34,784.875C1225.97,785.205 1225.29,785.691 1224,785.691C1223.73,785.691 1223.47,785.652 1223.23,785.578C1225.27,795.678 1223.64,807.779 1224.45,818.533C1224.83,823.672 1225.69,828.503 1227.79,832.605C1228.55,834.1 1230.26,834.804 1232.34,835.285C1235.44,836.003 1239.35,835.969 1243.49,835.538C1253.73,834.471 1265.37,830.879 1270.08,828.057ZM1223.78,780.32L1224,780.309C1223.92,780.309 1223.85,780.312 1223.78,780.32Z"/></g></svg>