<?xml version="1.0" encoding="utf-8"?>
<!DOCTYPE svg PUBLIC "-//W3C//DTD SVG 1.1//EN" "http://www.w3.org/Graphics/SVG/1.1/DTD/svg11.dtd">
<svg version="1.1" xmlns="http://www.w3.org/2000/svg" xmlns:xlink="http://www.w3.org/1999/xlink" x="0px" y="0px" width="960px"
	 height="560px" viewBox="0 0 960 560" enable-background="new 0 0 960 560" xml:space="preserve">
	<polyline opacity="0.5" fill="#A8BBEF" points="265.418,-121.327 214.667,444 666.667,81.334 	"/>
	<polyline opacity="0.5" fill="#A8BBEF" points="734.856,-137.324 781,487.665 108,215.808 	"/>
	<polyline opacity="0.5" fill="#A8BBEF" points="876,640 487.094,-10.661 102,626.983 	"/>
	<polyline fill="#C4B2A9" points="510,192.667 510,153.667 469.333,118.333 	"/>
	<polyline fill="#C4B2A9" points="350.333,232.333 513,197.954 466.575,113.333 	"/>
	<polyline fill="#C4B2A9" points="382.956,289.522 429.768,324.108 510,195.999 354,231.969 383.698,290.998 	"/>
	<polyline fill="#C4B2A9" points="428,325.998 463,317.998 505.998,264.998 	"/>
	<polyline fill="#C4B2A9" points="507.667,186.666 504.164,267.258 426.667,328.108 	"/>
	<polygon fill="#C4B2A9" points="345.667,150.166 354.667,228.499 465,117.166 	"/>
	<polyline fill="#C4B2A9" points="397.333,102.336 347.463,149.669 472.333,116.336 	"/>
	<polyline fill="#B2A192" points="525.333,182.335 507.721,190.155 518.333,224.335 	"/>
	<polyline fill="#C4B2A9" points="507.721,192.667 504.667,232.333 520.527,213.335 	"/>
	<polyline opacity="0.7" fill="#AA9C97" points="353,198.069 411.398,173.004 401.593,204.341 	"/>
	<polyline opacity="0.8" fill="#AA9C97" points="361,196.337 362.333,216.004 409.898,201.666 	"/>
	<line fill="#E4D6CD" x1="352.333" y1="216.004" x2="340.667" y2="151.338"/>
	<polyline opacity="0.8" points="349,136.671 340.037,155.392 349,209.338 	"/>
	<polyline opacity="0.8" points="510.449,194.665 471.449,111.004 505.334,136.173 	"/>
	<polyline opacity="0.8" points="394.333,115.338 339.667,152.671 352,98.004 	"/>
	<polyline points="426.333,111.004 354.667,121.006 405.333,72.672 	"/>
	<polyline opacity="0.7" points="407,70.672 409,111.004 510,129.006 	"/>
	<path opacity="0.7" d="M407,70.338l89,52.335c-29.09-31.885-29.09-40.204-29.09-40.204"/>
	<polyline opacity="0.7" points="386.333,105.007 352.333,97.75 406.333,67.337 	"/>
	<polyline opacity="0.8" points="370,178.67 352.333,194.665 398,183.671 	"/>
	<polyline opacity="0.5" points="376.189,174.67 352.333,196.337 396.214,181.003 	"/>
	<polyline opacity="0.8" points="435.333,164.002 426.333,174.67 480,162.002 	"/>
	<polyline opacity="0.6" points="440,162.002 474,160.336 431.667,174.67 	"/>
	<polyline opacity="0.7" fill="#9D6869" points="464.928,261.668 408.928,280 420.928,266.668 	"/>
	<polyline fill="#231718" points="470.667,189.002 436.928,192.002 461,181.671 	"/>
	<polyline opacity="0.8" fill="#231718" points="440.333,196.337 455,194.665 457.167,178.671 	"/>
	<polyline opacity="0.9" fill="#191512" points="388.322,198.665 365,211.668 399.667,205.167 	"/>
	<polyline opacity="0.7" fill="#191512" points="367.667,206.696 373.772,211.668 392.333,198.665 	"/>
	<polyline opacity="0.8" fill="#D8B29E" points="516.527,182.335 529.333,205.167 513,224.335 	"/>
	<polyline opacity="0.3" fill="#99796B" points="412.049,230.333 450.435,281.738 399.667,299.75 	"/>
	<polyline opacity="0.5" fill="#99796B" points="488.333,224.335 457.167,319.331 510.721,259.387 	"/>
	<polyline opacity="0.3" fill="#D8B29E" points="431.667,170.002 421.667,194.665 480,192.002 	"/>
	<polyline opacity="0.3" fill="#D8B29E" points="507.721,185.504 507.721,257.387 480,297.044 	"/>
	<polyline opacity="0.3" fill="#D8B29E" points="507.667,174.67 507.667,254.335 484.667,224.335 	"/>
	<polyline opacity="0.8" fill="#BF9786" points="509.639,198.665 509.639,218.335 521.166,207.002 	"/>
	<polyline opacity="0.7" fill="#9D6869" points="444.678,261.001 408.928,283.938 461.072,264.937 	"/>
	<polyline fill="#C4B2A9" points="450.833,212.5 493.86,196.337 485.709,232.333 	"/>
	<polyline opacity="0.2" fill="#99796B" points="474.726,119.966 499.548,162.002 436.927,156.657 	"/>
	<polyline opacity="0.2" fill="#99796B" points="484.667,149.669 486.333,245.334 510.721,192.002 	"/>
	<polyline fill="#A39791" points="461.578,253.01 467.169,254.313 462.26,256.698 	"/>
	<polyline opacity="0.2" fill="#99796B" points="462.26,256.698 431.217,285.667 453.004,285.667 	"/>
	<polyline opacity="0.2" fill="#99796B" points="435,203.335 440.333,224.335 504.258,205.167 	"/>
	<polyline opacity="0.4" fill="#99796B" points="452.987,251.151 405.047,169.476 440.219,257.9 	"/>
	<polyline fill="#444241" points="409,169.476 413.16,169.476 409.898,173.648 	"/>
	<polyline fill="#444241" points="435,212.5 435,215.418 437.417,213.959 	"/>
	<polyline opacity="0.4" fill="#444241" points="429.768,324.108 461.578,317 475.75,295.498 	"/>
	<polyline opacity="0.3" fill="#444241" points="407,303.835 432.078,321.565 460.738,309.858 	"/>
	<polyline opacity="0.3" fill="#7F746F" points="420,253.01 433,264.998 464.374,251.5 	"/>
	<polyline opacity="0.8" points="369.998,75.057 340.667,127.169 390.833,111.134 	"/>
	<path d="M415.75,72.672"/>
	<polyline opacity="0.7" points="405.638,101.227 509.221,133.67 439.016,71.437 	"/>
	<path d="M457.167,120.384"/>
	<polyline opacity="0.4" points="503.882,183.671 464.578,121.476 486.505,117.665 	"/>
	<polyline opacity="0.5" fill="#F2DDDE" points="407,149.669 421.667,228.5 412,284.667 	"/>
	<polyline opacity="0.6" fill="#E4D6CD" points="349.167,142.171 350.472,192.835 410.833,145.434 	"/>
	<polyline opacity="0.4" fill="#E4D6CD" points="388.667,122.673 352.333,145.046 409.898,160.336 	"/>
	<path fill="#E4D6CD" d="M377.009,127.169"/>
	<polyline opacity="0.5" fill="#E4D6CD" points="414.777,111.668 423,151.338 370.111,131.953 	"/>
	<polyline opacity="0.4" fill="#E4D6CD" points="353,213.999 374.274,266.666 394.333,214.335 	"/>
	<polyline opacity="0.2" fill="#E4D6CD" points="374.274,266.666 399.667,230.333 417.38,314.956 	"/>
	<polyline fill="#C4B2A9" points="501.234,266.666 464.374,316.306 528.667,342.668 	"/>
	<polyline fill="#C4B2A9" points="421.667,322.47 452.759,400.002 534.667,322.47 	"/>
	<polyline fill="#C4B2A9" points="440.872,403.134 473.511,421.002 564.036,300.823 	"/>
	<path fill="#C4B2A9" d="M544,319.331"/>
	<polyline fill="#C4B2A9" points="507.721,381.669 545.667,321.565 509.639,288.335 	"/>
	<polyline fill="#C4B2A9" points="464.374,314.167 442.187,322.756 485.5,322.756 	"/>
	<polyline opacity="0.4" fill="#8E8580" points="500.98,271.183 462.26,319.331 489.333,309.803 	"/>
	<polyline opacity="0.4" fill="#8E8580" points="435,325.998 469.629,380.002 478.575,307.002 	"/>
	<polyline opacity="0.4" fill="#8E8580" points="510,293.335 546,319.331 516.527,341.002 	"/>
	<polyline opacity="0.5" fill="#8E8580" points="535.333,316.998 528.667,350.335 497.667,375.669 	"/>
	<polyline opacity="0.8" fill="#1D2021" points="392.333,555.33 646.667,560 384.928,355.33 	"/>
	<polyline fill="#F3F6F1" points="505.447,286.26 542.889,318.034 682.667,361.23 	"/>
	<polyline opacity="0.9" fill="#F3F6F1" points="656,556 656,355.222 583.225,324.108 563.369,399.826 656,549.82 	"/>
	<path fill="#F3F6F1" d="M417.38,323.745"/>
	<polyline opacity="0.8" fill="#F3F6F1" points="321.31,420.818 382.093,501.485 414.024,321.565 	"/>
	<polyline opacity="0.9" fill="#F3F6F1" points="344.519,565.331 408.928,569.998 329.333,405.331 	"/>
	<polyline opacity="0.9" fill="#1D2021" points="416.907,316.92 453.382,385.485 396.949,425.604 	"/>
	<polyline opacity="0.8" fill="#1D2021" points="544,380.002 460.738,439.33 666,579.997 	"/>
	<polyline opacity="0.9" fill="#FFFFFF" points="410.667,325.998 420,322.47 444.439,401.865 	"/>
	<polyline opacity="0.9" fill="#FFFFFF" points="423.667,360.912 471.667,425.604 478.167,413 	"/>
	<polyline opacity="0.8" fill="#FFFFFF" points="467.169,411.461 551.333,314.956 474.037,427.305 	"/>
	<polyline opacity="0.9" fill="#F3F6F1" points="540,328.775 535.287,391.036 471,431.604 	"/>
	<polyline points="545.667,302 610.333,319.331 537,395.333 	"/>
	<polyline points="540,378.668 595,508.334 601.333,321.565 	"/>
	<polyline points="592.333,401.865 592.333,476.676 666,549.342 	"/>
	<polyline points="395.827,335.002 350,375.669 384.928,528.672 	"/>
</svg>
