<?xml version="1.0" standalone="no"?><!DOCTYPE svg PUBLIC "-//W3C//DTD SVG 1.1//EN" "http://www.w3.org/Graphics/SVG/1.1/DTD/svg11.dtd"><svg class="icon" width="200px" height="200.00px" viewBox="0 0 1024 1024" version="1.1" xmlns="http://www.w3.org/2000/svg"><path d="M922.05 799.87l-1.46-0.43c-24.73-6.72-42.86-13.09-53.77-17.31-38.67-14.89-48.75-25.62-51.32-30.67-0.09-0.19-0.16-0.38-0.24-0.56l-0.36-47.31-165.18 1.88-0.32 45.43c-0.08 0.19-0.16 0.38-0.25 0.56-2.57 5.05-12.63 15.78-51.32 30.7-10.9 4.2-29.06 10.56-53.55 17.23l-1.68 0.48c-22.3 7.45-37.3 28.33-37.3 51.93v65.56h454.05V851.8c-0.02-23.6-14.99-44.49-37.3-51.93z" fill="#AC92EB" /><path d="M860.96 617.18c0 83.57-79.69 163.97-128.65 163.97-48.96 0-128.67-80.4-128.67-163.97 0-83.6 57.61-138.76 128.67-138.76 71.05 0 128.65 55.16 128.65 138.76z" fill="#EAC6BB" /><path d="M579.65 593.56l0.01-0.03c-0.02 0.03-0.03 0.03-0.01 0.03z" fill="#434A54" /><path d="M860.8 623.74s22.12-110.91-32.45-151.96c-96.05-72.26-209.32-20.08-209.32-20.08l19 26.72s-83.75 42.88-61.45 189.48c2.74 18.01 76.88-113.55 207.07-105.91l77.15 61.75z" fill="#434A54" /><path d="M605.55 110.15c-19.56 0-37.25 8.04-49.93 20.99-12.69-12.96-30.37-20.99-49.93-20.99-38.61 0-69.92 31.29-69.92 69.92 0 79.89 119.85 149.81 119.85 149.81s119.85-69.92 119.85-149.81c0-38.63-31.3-69.92-69.92-69.92z" fill="#ED5564" /><path d="M605.55 110.15c-6.34 0-12.5 0.86-18.35 2.45 29.7 8.07 51.56 35.21 51.56 67.47 0 60.13-67.92 114.62-101.49 137.9 11.02 7.64 18.35 11.91 18.35 11.91s119.85-69.92 119.85-149.81c0-38.63-31.3-69.92-69.92-69.92z" fill="#FFFFFF" opacity=".2" /><path d="M583.81 774.89l-1.77-0.54c-29.99-8.12-51.96-15.86-65.2-20.97-46.88-18.04-59.11-31.05-62.21-37.2-0.12-0.21-0.2-0.46-0.31-0.67l-0.42-57.36-200.29 2.31-0.39 55.05c-0.11 0.21-0.19 0.46-0.31 0.67-3.12 6.16-15.31 19.17-62.21 37.23-13.21 5.08-35.23 12.82-64.93 20.89l-2.03 0.59c-27.04 9.03-45.23 34.38-45.23 62.98v79.49h550.51v-79.49c-0.01-28.6-18.17-53.94-45.21-62.98z" fill="#5D9CEC" /><path d="M509.74 553.39c0 101.37-96.62 198.81-155.99 198.81-59.35 0-155.98-97.44-155.98-198.81 0-101.34 69.84-168.22 155.98-168.22 86.15 0 155.99 66.88 155.99 168.22z" fill="#EAC6BB" /><path d="M454.27 366.84c-26.55-24.03-115.47-53.55-204.16 0-44.92 27.1-77.61 146.8-77.61 146.8s87.62 49.65 201.68-4.01c68.24-32.12 66.7-15.29 86.21 13.95 11.57 17.34 49.35 29.81 49.35 29.81s29.4-109.73-55.47-186.55z" fill="#A85D5D" /></svg>