<?xml version="1.0" encoding="UTF-8"?>
<svg width="14px" height="12px" viewBox="0 0 14 12" version="1.1" xmlns="http://www.w3.org/2000/svg" xmlns:xlink="http://www.w3.org/1999/xlink">
    <title>二进制</title>
    <g id="页面-1" stroke="none" stroke-width="1" fill="none" fill-rule="evenodd">
        <g id="模型图标" transform="translate(-42.000000, -132.000000)" fill="#000000" fill-rule="nonzero">
            <g id="二进制" transform="translate(42.000000, 132.000000)">
                <path d="M5.76283296,8.07593545 L4.6126778,6.48460626 C4.46029753,6.2737854 4.21325821,6.27380104 4.06087794,6.48460626 L1.94054962,9.41827053 C1.78816935,9.62909139 1.87909083,9.80000313 2.14361385,9.80000313 L11.8582002,9.80000313 C12.1228796,9.80000313 12.2117681,9.62946671 12.0579022,9.41909936 L8.6977483,4.82496867 C8.54288153,4.61322515 8.29443475,4.61461696 8.14058447,4.82496867 L5.7628486,8.07593545 L5.76283296,8.07593545 Z M3.26666771,3.26666771 C3.26666771,3.78213549 3.68453691,4.20000469 4.20000469,4.20000469 C4.71547247,4.20000469 5.13334167,3.78213549 5.13334167,3.26666771 C5.13334167,2.75119993 4.71547247,2.33333073 4.20000469,2.33333073 C3.68453691,2.33333073 3.26666771,2.75119993 3.26666771,3.26666771 L3.26666771,3.26666771 Z" id="形状"></path>
                <path d="M0.699019474,0.933329163 L13.3009805,0.933329163 C13.1698528,0.933329163 13.0666708,0.828911771 13.0666708,0.700833525 L13.0666708,10.9658279 C13.0666708,10.8374838 13.1703532,10.7333323 13.3009805,10.7333323 L0.699019474,10.7333323 C0.830147202,10.7333323 0.933329163,10.8377497 0.933329163,10.9658279 L0.933329163,0.700833525 C0.933329163,0.829177623 0.829646774,0.933329163 0.699019474,0.933329163 Z M0,10.9658436 C0,11.3507508 0.312188769,11.6666771 0.699019474,11.6666771 L13.3009805,11.6666771 C13.6867478,11.6666771 14,11.3520331 14,10.9658436 L14,0.700833525 C14,0.315926339 13.6878112,0 13.3009805,0 L0.699019474,0 C0.313252178,0 0,0.314643993 0,0.700833525 L0,10.9658279 L0,10.9658436 Z" id="形状"></path>
            </g>
        </g>
    </g>
</svg>