<?xml version="1.0" encoding="UTF-8"?>
<svg width="14px" height="12px" viewBox="0 0 14 12" version="1.1" xmlns="http://www.w3.org/2000/svg" xmlns:xlink="http://www.w3.org/1999/xlink">
    <title>布尔类型</title>
    <g id="页面-1" stroke="none" stroke-width="1" fill="none" fill-rule="evenodd">
        <g id="模型图标" transform="translate(-41.000000, -105.000000)" fill="#fff" fill-rule="nonzero">
            <g id="布尔类型" transform="translate(41.000000, 105.000000)">
                <path d="M0,0.699999989 L4.9,0.699999989 L4.9,2.1 L0,2.1 L0,0.699999989 Z M9.1,0.699999989 L10.5,0.699999989 L10.5,10.5 L9.1,10.5 L9.1,0.699999989 Z" id="形状"></path>
                <path d="M1.75,0.699999989 L3.15,0.699999989 L3.15,10.5 L1.75,10.5 L1.75,0.699999989 Z M9.1,0.699999989 L14,0.699999989 L14,2.1 L9.1,2.1 L9.1,0.699999989 Z M9.1,4.23499999 L14,4.23499999 L14,5.63499998 L9.1,5.63499998 L9.1,4.23499999 Z M6.3,0 L7.7,0 L7.7,11.2 L6.3,11.2 L6.3,0 Z" id="形状"></path>
            </g>
        </g>
    </g>
</svg>