<?xml version="1.0" encoding="UTF-8"?>
<svg width="17px" height="17px" viewBox="0 0 17 17" version="1.1" xmlns="http://www.w3.org/2000/svg" xmlns:xlink="http://www.w3.org/1999/xlink">
    <title>日期</title>
    <g id="数据治理" stroke="none" stroke-width="1" fill="none" fill-rule="evenodd">
        <g id="元数据_技术元数据_详情3_221125" transform="translate(-1301.000000, -533.000000)" fill="#161616" fill-rule="nonzero">
            <g id="编组-7" transform="translate(565.000000, 449.840182)">
                <g id="表+字段展示" transform="translate(719.232749, 0.000000)">
                    <g id="编组-9备份-2" transform="translate(7.734143, 80.000000)">
                        <g id="日期" transform="translate(10.000027, 4.000000)">
                            <g id="naozhong" transform="translate(1.000000, 1.249999)">
                                <path d="M13.4487422,4.20605297 C12.7558675,2.57032573 11.4594735,1.25879223 9.84228614,0.557621137 C10.2797932,0.208989755 10.8305712,1.95941262e-16 11.4301822,1.95941262e-16 C12.849103,1.95941262e-16 14,1.16406111 14,2.59958881 C14,3.20704467 13.7929715,3.76367815 13.4487422,4.20605297 Z M13.3437535,7.08203257 C13.3437535,8.78710796 12.6821172,10.3320406 11.6098525,11.4814561 L12.497551,12.3789043 C12.6147444,12.4980448 12.687493,12.66211 12.687493,12.8437273 C12.687493,13.206059 12.3969503,13.500002 12.0385693,13.500002 C11.8593788,13.500002 11.6972748,13.4267596 11.5796017,13.307605 L10.6264634,12.3437434 C9.59814964,13.0702975 8.3496009,13.500002 7,13.500002 C5.65284003,13.500002 4.40674635,13.0722587 3.37940619,12.3476518 L2.43312504,13.3056297 C2.3139845,13.4257579 2.14993347,13.500002 1.96876763,13.500002 C1.60646415,13.500002 1.31250705,13.2021225 1.31250705,12.8359248 C1.31250705,12.652318 1.38625734,12.4863057 1.50441022,12.3661916 L2.38478594,11.4755583 C1.31592156,10.3271305 0.656260584,8.78415906 0.656260584,7.08200435 C0.656260584,3.53707972 3.49659962,0.664049008 7,0.664049008 C10.5034286,0.664049008 13.3437535,3.53710796 13.3437535,7.08203257 Z M7,1.99121584 C4.22120657,1.99121584 1.96875353,4.27050512 1.96875353,7.08204669 C1.96875353,9.89258648 4.22120657,12.1718758 7,12.1718758 C9.77882166,12.1718758 12.0312606,9.89258648 12.0312606,7.08204669 C12.0312606,4.27050512 9.77882166,1.99121584 7,1.99121584 Z M9.62500001,7.74609571 L7,7.74609571 C6.6372168,7.74609571 6.34375352,7.44825849 6.34375352,7.08204669 L6.34375352,3.5410304 C6.34375352,3.17383093 6.63721682,2.87696727 7.00000001,2.87696727 C7.36281144,2.87696727 7.6562747,3.17383093 7.6562747,3.5410304 L7.6562747,6.41796944 L9.62500001,6.41796944 C9.98779731,6.41796944 10.2812747,6.71486132 10.2812747,7.08203257 C10.2812747,7.44824438 9.98779731,7.74609571 9.62500001,7.74609571 Z M0.562996857,4.2959022 C0.211430697,3.84376361 -1.95941262e-16,3.27539103 -1.95941262e-16,2.65529307 C-1.95941262e-16,1.18849875 1.17529227,2.82243236e-05 2.62500001,2.82243236e-05 C3.23780336,2.82243236e-05 3.79981255,0.213885758 4.24658954,0.569360235 C2.59472104,1.28516286 1.27101105,2.62501411 0.562996857,4.2959022 Z" id="形状"></path>
                            </g>
                        </g>
                    </g>
                </g>
            </g>
        </g>
    </g>
</svg>