<?xml version="1.0" encoding="UTF-8"?>
<svg width="14px" height="14px" viewBox="0 0 14 14" version="1.1" xmlns="http://www.w3.org/2000/svg" xmlns:xlink="http://www.w3.org/1999/xlink">
    <title>日期和时间</title>
    <g id="页面-1" stroke="none" stroke-width="1" fill="none" fill-rule="evenodd">
        <g id="模型图标" transform="translate(-41.000000, -78.000000)" fill="#fff" fill-rule="nonzero">
            <g id="日期和时间" transform="translate(41.000000, 78.000000)">
                <path d="M7.87500001,7.08750001 L9.97500001,9.18750001 L8.74999999,10.4125 L6.2125,7.87500001 L6.12499999,7.87500001 L6.12499999,3.49999999 L7.87500001,3.49999999 L7.87500001,7.08750001 Z M7,14 C3.15,14 0,10.85 0,7 C0,3.15 3.15,0 7,0 C10.85,0 14,3.15 14,7 C14,10.85 10.85,14 7,14 Z M7,12.25 C9.8875,12.25 12.25,9.8875 12.25,7 C12.25,4.1125 9.8875,1.74999999 7,1.74999999 C4.1125,1.74999999 1.74999999,4.1125 1.74999999,7 C1.74999999,9.8875 4.1125,12.25 7,12.25 Z" id="形状"></path>
            </g>
        </g>
    </g>
</svg>