<?xml version="1.0" encoding="UTF-8"?>
<svg width="17px" height="17px" viewBox="0 0 17 17" version="1.1" xmlns="http://www.w3.org/2000/svg" xmlns:xlink="http://www.w3.org/1999/xlink">
    <title>数值</title>
    <g id="数据治理" stroke="none" stroke-width="1" fill="none" fill-rule="evenodd">
        <g id="元数据_技术元数据_详情3_221125" transform="translate(-1301.000000, -509.000000)" fill="#161616" fill-rule="nonzero">
            <g id="编组-7" transform="translate(565.000000, 449.840182)">
                <g id="表+字段展示" transform="translate(719.232749, 0.000000)">
                    <g id="编组-9备份" transform="translate(7.734143, 56.000000)">
                        <g id="数值" transform="translate(10.000027, 4.000000)">
                            <g id="shuzhikuang" transform="translate(1.000000, 1.637412)">
                                <path d="M2.5002353,13.3625882 L11.5047059,13.3625882 C12.8796629,13.3580799 13.9936753,12.2455381 14,10.8705882 L14,2.5002353 C13.9981941,1.12206962 12.8828653,0.00453225386 11.5047059,0 L2.5002353,0 C1.12014585,0.00181471301 0.00181471301,1.12014585 0,2.5002353 L0,10.8705882 C0.00633975166,12.2474605 1.12334959,13.3607911 2.5002353,13.3625882 Z M1.14141176,10.8705882 L1.14141176,2.5002353 C1.1423193,1.75015402 1.75015402,1.1423193 2.5002353,1.14141176 L11.5047059,1.14141176 C12.2547872,1.1423193 12.8626219,1.75015402 12.8635294,2.5002353 L12.8635294,10.8705882 C12.8626219,11.6206695 12.2547872,12.2285042 11.5047059,12.2294118 L2.5002353,12.2294118 C1.75015402,12.2285042 1.1423193,11.6206695 1.14141176,10.8705882 Z" id="形状"></path>
                                <path d="M3.12661896,4.07152941 C3.00069064,4.29992864 2.83309496,4.50271942 2.63250132,4.66941177 C2.38234463,4.88980762 2.10163699,5.07287781 1.79908955,5.21294117 L1.70356014,5.25741176 L1.70356014,6.17317646 L1.9292072,6.09411765 C2.1578451,6.00338733 2.37826374,5.89317801 2.58803073,5.76470588 C2.70332485,5.69717647 2.80873661,5.628 2.90426602,5.56047058 L2.90426602,9.17905882 L3.82826602,9.17905882 L3.82826602,3.97929411 L3.1727366,3.97929411 L3.12661896,4.07152941 Z M6.31367778,8.23529412 C6.4092072,8.13482353 6.64308954,7.93388236 6.9889719,7.63741176 C7.31892716,7.36764539 7.63140035,7.07717735 7.92450131,6.7677647 C8.09651967,6.57799128 8.23668532,6.36162447 8.33956013,6.12705882 C8.42604634,5.92565724 8.47086799,5.70883249 8.47132484,5.48964706 C8.47940627,5.08169902 8.31279236,4.68973681 8.01344249,4.41247058 C7.68031915,4.11278007 7.24215777,3.95705515 6.79461896,3.97929411 C6.35601214,3.95862902 5.92530529,4.10121999 5.58567778,4.37952941 C5.26394719,4.67883116 5.07385043,5.09337239 5.0569719,5.53247058 L5.04214837,5.69717647 L5.99579543,5.796 L5.99579543,5.61482352 C5.98214361,5.39440219 6.05886083,5.17792876 6.20826601,5.01529411 C6.3613241,4.8688474 6.56830054,4.79249874 6.77979544,4.80447059 C6.98124146,4.7940757 7.17837224,4.86532779 7.32661896,5.00211765 C7.45917381,5.12515776 7.53288313,5.29894395 7.5292072,5.47976471 C7.51365077,5.70517148 7.42782247,5.92003024 7.28379543,6.09411765 C6.9755513,6.46442943 6.62696495,6.7992049 6.24450131,7.09223529 C5.95639213,7.32009602 5.68856708,7.57249082 5.44403073,7.84658823 C5.26521982,8.05186976 5.12313895,8.28644249 5.02403072,8.53999999 C4.96509074,8.69211585 4.93763468,8.85461093 4.94332484,9.01764705 L4.94332484,9.18235293 L8.47791308,9.18235293 L8.47791308,8.27647058 L6.26426602,8.27647058 L6.31367778,8.23529412 Z M12.0240307,6.69858823 C11.9122486,6.55192182 11.7686432,6.43253221 11.6040307,6.34941177 C11.7052316,6.26985653 11.7926027,6.17413787 11.862619,6.06611764 C11.9917407,5.87075928 12.0599561,5.64146399 12.058619,5.40729411 C12.0581321,5.15669915 11.9886074,4.91108324 11.8576778,4.69741176 C11.718829,4.47047641 11.518331,4.28768626 11.2795601,4.17035294 C11.0300017,4.04416425 10.7537822,3.97976951 10.4741484,3.98258824 C10.084725,3.97083308 9.70447503,4.10207497 9.40520719,4.35152941 C9.10648697,4.61678589 8.91106918,4.97903796 8.85344249,5.37435294 L8.82379543,5.53905882 L9.74779543,5.7037647 L9.77414837,5.53905882 C9.79200245,5.33012916 9.87892905,5.13309552 10.0212072,4.97905882 C10.1471002,4.8610637 10.3148929,4.79821552 10.4873248,4.80447059 C10.6559483,4.79517493 10.821143,4.8545975 10.9452072,4.96917647 C11.0574347,5.08067585 11.1172659,5.2344419 11.1099131,5.39247059 C11.1265937,5.58065041 11.0386769,5.76280895 10.8809719,5.86682352 C10.703515,5.97952005 10.4965338,6.03685555 10.2863837,6.03152941 L10.2089719,6.03152941 L10.044266,6.01341177 L9.93720719,6.93905882 L10.1743837,6.87647058 C10.2972066,6.84133447 10.4238809,6.82142061 10.5515601,6.81717647 C10.7623028,6.80853781 10.9672797,6.88719175 11.1181484,7.03458824 C11.265797,7.18271484 11.3451587,7.38559451 11.3372072,7.59458824 C11.3428689,7.82173641 11.2532908,8.04090418 11.0901484,8.19905881 C10.9356742,8.36022637 10.7203713,8.44873979 10.4972072,8.44282352 C10.315064,8.44989011 10.1374927,8.38478063 10.0030895,8.26164705 C9.83910241,8.08454799 9.73483044,7.86044969 9.7049719,7.62094118 L9.67367778,7.47105882 L8.76779543,7.59129411 L8.78426601,7.75599999 C8.81460338,8.17521598 9.00580924,8.56647983 9.31791307,8.84799999 C9.63998251,9.13330732 10.0589157,9.28473606 10.4889719,9.27129411 C10.9658159,9.28363118 11.4279989,9.10586849 11.7736778,8.77717646 C12.1114337,8.47003563 12.3014929,8.03295945 12.2957954,7.57647059 C12.3052888,7.2617725 12.2096657,6.95288073 12.0240307,6.69858823 L12.0240307,6.69858823 Z" id="形状"></path>
                            </g>
                        </g>
                    </g>
                </g>
            </g>
        </g>
    </g>
</svg>