<?xml version="1.0" encoding="UTF-8"?>
<svg width="14px" height="10px" viewBox="0 0 14 10" version="1.1" xmlns="http://www.w3.org/2000/svg" xmlns:xlink="http://www.w3.org/1999/xlink">
    <title>数值类型</title>
    <g id="页面-1" stroke="none" stroke-width="1" fill="none" fill-rule="evenodd">
        <g id="模型图标" transform="translate(-41.000000, -29.000000)" fill="#fff" fill-rule="nonzero">
            <g id="数值类型" transform="translate(41.000000, 29.000000)">
                <path d="M8.67847411,2.60163488 L10.4141689,2.60163488 L10.4141689,7.4386921 L11.9209809,7.4386921 L11.9209809,0.152588556 C11.9209809,0.0686648501 11.8523161,0 11.7683924,0 L10.8490463,0 C10.7784741,0 10.7155313,0.0495912807 10.7021798,0.120163488 C10.6525886,0.350953678 10.5705722,0.545504087 10.4561308,0.709536785 C10.3188011,0.902179837 10.152861,1.05667575 9.95449591,1.17493188 C9.75803815,1.29318801 9.53487738,1.37520436 9.28692098,1.42098093 C9.08855586,1.45722071 8.88637602,1.47820163 8.67656676,1.48010899 C8.59264305,1.48201635 8.52588556,1.54877384 8.52588556,1.63269755 L8.52588556,2.44904632 C8.52588556,2.53297003 8.59455041,2.60163488 8.67847411,2.60163488 Z M13.8474114,8.44959128 L8.04904632,8.44959128 C7.96512262,8.44959128 7.89645777,8.51825613 7.89645777,8.60217984 L7.89645777,9.51771117 C7.89645777,9.60163488 7.96512262,9.67029973 8.04904632,9.67029973 L13.8474114,9.67029973 C13.9313351,9.67029973 14,9.60163488 14,9.51771117 L14,8.60217984 C14,8.51825613 13.9313351,8.44959128 13.8474114,8.44959128 Z M5.70108992,1.02425068 C5.39400545,0.661852861 5.04495913,0.40626703 4.64822888,0.253678474 C4.24196185,0.0972752044 3.80708447,0.0190735695 3.34359673,0.0190735695 C2.88773842,0.0190735695 2.45858311,0.0972752044 2.05231608,0.253678474 C1.65558583,0.40626703 1.30844687,0.661852861 1.00708447,1.02234332 C0.703814714,1.3866485 0.459673025,1.87493188 0.276566757,2.49100817 C0.0934604905,3.11089918 0,3.88337875 0,4.80844687 C0,5.76021798 0.0934604905,6.55177112 0.276566757,7.18119891 C0.459673025,7.80681199 0.703814714,8.30081744 1.00708447,8.66321526 C1.30844687,9.02370572 1.65558583,9.27929155 2.05231608,9.43188011 C2.45858311,9.58828338 2.88773842,9.66648501 3.34359673,9.66648501 C3.80899183,9.66648501 4.24386921,9.58828338 4.64822888,9.43188011 C5.04495913,9.27929155 5.39591281,9.02370572 5.70108992,8.6613079 C6.00817439,8.29891008 6.25422343,7.80490463 6.4373297,7.17929155 C6.62043597,6.54986376 6.71389646,5.75831063 6.71389646,4.80653951 C6.71389646,3.88337875 6.62043597,3.11089918 6.4373297,2.48910082 C6.25613079,1.87683924 6.01008174,1.38855586 5.70108992,1.02425068 Z M5.13841962,5.82506812 C5.11934605,6.23324251 5.05831063,6.62615804 4.95722071,7.00572207 C4.85231608,7.40054496 4.68065395,7.7400545 4.44223433,8.02425068 C4.18283379,8.33514986 3.80899183,8.48773842 3.34359673,8.48773842 C2.88583106,8.48773842 2.51961853,8.33324251 2.26212534,8.02234332 C2.02942779,7.7400545 1.85967302,7.40054496 1.75476839,7.00572207 C1.65367847,6.62615804 1.59264305,6.23133515 1.57356948,5.82506812 C1.55449591,5.42833787 1.54495913,5.09073569 1.54495913,4.81035422 C1.54495913,4.64250681 1.54686649,4.44032698 1.55258856,4.20381471 C1.55640327,3.96158038 1.57356948,3.71171662 1.60217984,3.45613079 C1.63079019,3.19673025 1.67847411,2.93923706 1.74713896,2.68365123 C1.81771117,2.42043597 1.91498638,2.18201635 2.04087193,1.97029973 C2.17247956,1.74904632 2.34223433,1.56784741 2.55013624,1.43051771 C2.76757493,1.28555858 3.03269755,1.21498638 3.34168937,1.21498638 C3.64877384,1.21498638 3.91580381,1.28555858 4.13705722,1.42861035 C4.34877384,1.56594005 4.52425068,1.74523161 4.65967302,1.96648501 C4.79128065,2.18010899 4.89046322,2.42043597 4.95722071,2.68555858 C5.02016349,2.9373297 5.06784741,3.19291553 5.10027248,3.45040872 C5.1346049,3.70790191 5.15367847,3.95776567 5.15749319,4.20190736 C5.1613079,4.43841962 5.16512262,4.64059946 5.16512262,4.80844687 C5.16702997,5.09073569 5.15749319,5.42833787 5.13841962,5.82506812 Z" id="形状"></path>
            </g>
        </g>
    </g>
</svg>