<?xml version="1.0" encoding="UTF-8"?>
<svg width="17px" height="17px" viewBox="0 0 17 17" version="1.1" xmlns="http://www.w3.org/2000/svg" xmlns:xlink="http://www.w3.org/1999/xlink">
    <title>字符串</title>
    <g id="数据治理" stroke="none" stroke-width="1" fill="none" fill-rule="evenodd">
        <g id="元数据_技术元数据_详情3_221125" transform="translate(-1301.000000, -485.000000)" fill="#161616" fill-rule="nonzero">
            <g id="编组-7" transform="translate(565.000000, 449.840182)">
                <g id="表+字段展示" transform="translate(719.232749, 0.000000)">
                    <g id="编组-9" transform="translate(7.734143, 32.000000)">
                        <g id="字符串" transform="translate(10.000027, 4.000000)">
                            <g id="Field-String" transform="translate(1.000000, 3.583541)">
                                <path d="M13.3471322,4.48453865 C13.3837905,4.49850374 13.4239401,4.47930175 13.4379052,4.44264339 C13.4413965,4.43566085 13.4413965,4.42693267 13.4413965,4.41820449 L13.4413965,3.40049875 C13.4413965,3.36907731 13.4221945,3.34289277 13.3925187,3.33416459 C13.2877805,3.30274314 13.0922693,3.28179551 12.9177057,3.28179551 C12.3433915,3.28179551 11.8406484,3.57331671 11.6346633,4.00099751 L11.6346633,3.50174564 C11.6346633,3.42493766 11.5718204,3.36209476 11.4950125,3.36209476 L10.5785536,3.36209476 C10.5017456,3.36209476 10.4389027,3.42493766 10.4389027,3.50174564 L10.4389027,8.20448878 C10.4389027,8.28129676 10.5017456,8.34413965 10.5785536,8.34413965 L11.5351621,8.34413965 C11.6119701,8.34413965 11.674813,8.28129676 11.674813,8.20448878 L11.674813,5.47605985 C11.674813,4.84413965 12.1304239,4.42518703 12.8112219,4.42518703 C12.9927681,4.42693267 13.2755611,4.45660848 13.3471322,4.48453865 Z M3.97306733,3.77755611 L3.01820449,3.55760599 C1.94987531,3.30972569 1.4872818,2.95012469 1.4872818,2.3234414 C1.4872818,1.54488778 2.16982544,1.040399 3.17880299,1.040399 C4.10049875,1.040399 4.77431421,1.50299252 4.92269327,2.24314214 L6.1446384,2.24314214 C6.02069825,0.918204489 4.82842893,0 3.1840399,0 C1.380798,0 0.199002494,0.96882793 0.199002494,2.42643392 C0.199002494,3.62394015 0.872817955,4.33790524 2.33216958,4.66957606 L3.4074813,4.919202 C4.51770574,5.17930175 5.00648379,5.56683292 5.00648379,6.23017456 C5.00648379,7 4.24713217,7.54289277 3.21720698,7.54289277 C2.15935162,7.54289277 1.39301746,7.0680798 1.24812968,6.31221945 L0,6.31221945 C0.125685786,7.70698254 1.31970075,8.58852868 3.12643392,8.58852868 C5.08503741,8.58852868 6.28428928,7.61446384 6.28428928,6.04513716 C6.28428928,4.81970075 5.61047382,4.15112219 3.97306733,3.77755611 Z M12.7431421,8.20448878 C12.7431421,8.55156049 13.0244994,8.83291771 13.3715711,8.83291771 C13.7186428,8.83291771 14,8.55156049 14,8.20448878 C14,7.85741706 13.7186428,7.57605985 13.3715711,7.57605985 C13.0244994,7.57605985 12.7431421,7.85741706 12.7431421,8.20448878 Z M9.46134663,3.47032419 L8.56408978,3.47032419 L8.56408978,2.3915212 C8.56408978,2.31471322 8.50124688,2.25187032 8.4244389,2.25187032 L7.46957606,2.25187032 C7.39276808,2.25187032 7.32992519,2.31471322 7.32992519,2.3915212 L7.32992519,3.47032419 L6.7032419,3.47032419 C6.62643392,3.47032419 6.56359102,3.53316708 6.56359102,3.60997506 L6.56359102,4.34837905 C6.56359102,4.42518703 6.62643392,4.48802993 6.7032419,4.48802993 L7.32992519,4.48802993 L7.32992519,7.06284289 C7.32992519,8.04389027 7.80822943,8.44887781 8.95511222,8.44887781 C9.15935162,8.44887781 9.36708229,8.42793017 9.54513716,8.39476309 C9.57830424,8.38952618 9.60099751,8.35985037 9.60099751,8.32668329 L9.60099751,7.46608479 C9.60099751,7.4276808 9.56957606,7.39625935 9.53117207,7.39625935 L9.52418953,7.39625935 C9.43865337,7.40498753 9.4159601,7.40673317 9.37930175,7.41022444 C9.30773067,7.41546135 9.24314214,7.41895262 9.15935162,7.41895262 C8.73865337,7.41895262 8.56408978,7.23915212 8.56408978,6.79750623 L8.56408978,4.48802993 L9.46134663,4.48802993 C9.53815461,4.48802993 9.60099751,4.42518703 9.60099751,4.34837905 L9.60099751,3.60997506 C9.60099751,3.53316708 9.53815461,3.47032419 9.46134663,3.47032419 Z" id="形状"></path>
                            </g>
                        </g>
                    </g>
                </g>
            </g>
        </g>
    </g>
</svg>