<?xml version="1.0" encoding="UTF-8" standalone="no"?>
<!DOCTYPE svg PUBLIC "-//W3C//DTD SVG 1.1//EN" "http://www.w3.org/Graphics/SVG/1.1/DTD/svg11.dtd">
<svg width="100%" height="100%" viewBox="0 0 200 200" version="1.1" xmlns="http://www.w3.org/2000/svg" xmlns:xlink="http://www.w3.org/1999/xlink" xml:space="preserve" xmlns:serif="http://www.serif.com/" style="fill-rule:evenodd;clip-rule:evenodd;stroke-linejoin:round;stroke-miterlimit:2;">
    <path d="M28.125,21.875L171.875,21.875C176.042,21.875 178.125,23.958 178.125,28.125L178.125,171.875C178.125,176.042 176.042,178.125 171.875,178.125L28.125,178.125C23.958,178.125 21.875,176.042 21.875,171.875L21.875,28.125C21.875,23.958 23.958,21.875 28.125,21.875Z" style="fill:rgb(222,230,252);fill-opacity:0.36;fill-rule:nonzero;"/>
    <path d="M137.5,143.75L137.5,137.5L143.75,137.5L143.75,112.5L125,112.5L125,106.25L143.75,106.25L143.75,81.25L125,81.25L125,75L143.75,75L143.75,50L118.75,50L118.75,68.75L112.5,68.75L112.5,50L106.25,50L106.25,43.75L112.5,43.75L112.5,25L118.75,25L118.75,43.75L143.75,43.75L143.75,25L150,25L150,43.75L181.25,43.75L181.25,50L150,50L150,75L181.25,75L181.25,81.25L150,81.25L150,106.25L181.25,106.25L181.25,112.5L150,112.5L150,137.5L181.25,137.5L181.25,143.75L150,143.75L150,181.25L143.75,181.25L143.75,143.75L137.5,143.75ZM118.75,162.5L118.75,181.25L112.5,181.25L112.5,162.5L118.75,162.5ZM93.75,143.75L87.5,143.75L87.5,181.25L81.25,181.25L81.25,143.75L56.25,143.75L56.25,181.25L50,181.25L50,143.75L25,143.75L25,137.5L50,137.5L50,112.5L25,112.5L25,106.25L50,106.25L50,81.25L25,81.25L25,75L50,75L50,50L25,50L25,43.75L50,43.75L50,25L56.25,25L56.25,43.75L62.5,43.75L62.5,50L56.25,50L56.25,75L75,75L75,81.25L56.25,81.25L56.25,106.25L62.5,106.25L62.5,112.5L56.25,112.5L56.25,137.5L81.25,137.5L81.25,131.25L87.5,131.25L87.5,137.5L93.75,137.5L93.75,143.75ZM81.25,25L87.5,25L81.25,25ZM118.75,87.5L112.5,87.5L118.75,87.5ZM118.75,118.75L118.75,125L112.5,125L112.5,118.75L118.75,118.75ZM106.25,112.5L106.25,106.25L106.25,112.5ZM100,81.25L93.75,81.25L93.75,75L100,75L100,81.25Z" style="fill:rgb(172,180,192);fill-opacity:0.5;fill-rule:nonzero;"/>
    <path d="M87.5,75L118.75,75L118.75,131.25L112.5,131.25L112.5,81.25L87.5,81.25L87.5,100L81.25,100L81.25,62.5L87.5,62.5L87.5,75ZM25,18.75L175,18.75C178.429,18.75 181.25,21.571 181.25,25L181.25,175C181.25,178.429 178.429,181.25 175,181.25L25,181.25C21.571,181.25 18.75,178.429 18.75,175L18.75,25C18.75,21.571 21.571,18.75 25,18.75ZM25,25L25,175L175,175L175,25L25,25Z" style="fill:rgb(93,109,126);fill-rule:nonzero;"/>
    <path d="M75,31.25L93.75,31.25C97.179,31.25 100,34.071 100,37.5L100,56.25C100,59.679 97.179,62.5 93.75,62.5L75,62.5C71.571,62.5 68.75,59.679 68.75,56.25L68.75,37.5C68.75,34.071 71.571,31.25 75,31.25ZM75,37.5L75,56.25L93.75,56.25L93.75,37.5L75,37.5Z" style="fill:rgb(39,162,223);fill-rule:nonzero;"/>
    <path d="M75,93.75L93.75,93.75C97.179,93.75 100,96.571 100,100L100,118.75C100,122.179 97.179,125 93.75,125L75,125C71.571,125 68.75,122.179 68.75,118.75L68.75,100C68.75,96.571 71.571,93.75 75,93.75ZM75,100L75,118.75L93.75,118.75L93.75,100L75,100ZM106.25,125L125,125C128.429,125 131.25,127.821 131.25,131.25L131.25,150C131.25,153.429 128.429,156.25 125,156.25L106.25,156.25C102.821,156.25 100,153.429 100,150L100,131.25C100,127.821 102.821,125 106.25,125ZM106.25,131.25L106.25,150L125,150L125,131.25L106.25,131.25Z" style="fill:rgb(48,173,152);fill-rule:nonzero;"/>
</svg>
