<?xml version="1.0" encoding="UTF-8" standalone="no"?>
<!DOCTYPE svg PUBLIC "-//W3C//DTD SVG 1.1//EN" "http://www.w3.org/Graphics/SVG/1.1/DTD/svg11.dtd">
<svg width="100%" height="100%" viewBox="0 0 458 121" version="1.1" xmlns="http://www.w3.org/2000/svg" xmlns:xlink="http://www.w3.org/1999/xlink" xml:space="preserve" xmlns:serif="http://www.serif.com/" style="fill-rule:evenodd;clip-rule:evenodd;stroke-linejoin:round;stroke-miterlimit:2;">
    <g id="SvgjsG6078" transform="matrix(25.057,0,0,25.057,-24.3387,-25.9767)">
        <path d="M5.427,3.286C5.439,3.443 5.395,3.485 5.266,3.465C5.238,3.509 5.206,3.55 5.171,3.588C5.156,3.595 5.139,3.599 5.122,3.599C5.06,3.599 5.009,3.548 5.009,3.486C5.009,3.476 5.011,3.465 5.014,3.455C5.031,3.385 5.086,3.361 5.193,3.38C5.196,3.36 5.201,3.34 5.207,3.321C5.216,3.301 5.226,3.283 5.237,3.264L5.234,3.253C5.189,3.211 5.158,3.165 5.19,3.102C5.218,3.049 5.279,3.023 5.336,3.039C5.425,3.049 5.513,3.06 5.602,3.071C5.619,3.073 5.635,3.077 5.651,3.084C5.7,3.098 5.733,3.142 5.733,3.193C5.733,3.255 5.682,3.307 5.62,3.307C5.613,3.307 5.607,3.306 5.601,3.305C5.571,3.303 5.542,3.296 5.512,3.293C5.485,3.29 5.458,3.289 5.427,3.286Z" style="fill:rgb(87,169,154);fill-rule:nonzero;"/>
        <path d="M4.195,3.128C4.099,3.127 4.041,3.065 4.063,2.999C4.103,2.883 4.155,2.771 4.203,2.658C4.209,2.646 4.218,2.637 4.229,2.631C4.257,2.62 4.271,2.587 4.261,2.559C4.248,2.503 4.282,2.445 4.338,2.43C4.39,2.414 4.447,2.437 4.475,2.485C4.503,2.538 4.484,2.604 4.433,2.635C4.406,2.647 4.392,2.679 4.402,2.708C4.405,2.724 4.403,2.742 4.397,2.758C4.359,2.855 4.325,2.953 4.279,3.046C4.26,3.085 4.214,3.11 4.195,3.128Z" style="fill:rgb(87,169,154);fill-rule:nonzero;"/>
        <path d="M5.155,2.569C5.101,2.572 5.051,2.539 5.031,2.489C5.019,2.468 4.999,2.452 4.975,2.445C4.916,2.437 4.871,2.386 4.872,2.327C4.872,2.272 4.913,2.224 4.967,2.217C5.028,2.206 5.07,2.235 5.099,2.3C5.111,2.318 5.13,2.331 5.152,2.333C5.231,2.332 5.309,2.324 5.387,2.321C5.393,2.32 5.399,2.319 5.405,2.319C5.46,2.319 5.508,2.361 5.516,2.416C5.518,2.422 5.518,2.429 5.518,2.435C5.518,2.493 5.473,2.542 5.415,2.546C5.328,2.558 5.238,2.562 5.155,2.569Z" style="fill:rgb(87,169,154);fill-rule:nonzero;"/>
        <path d="M4.705,4.593C4.662,4.548 4.622,4.51 4.587,4.468C4.542,4.419 4.544,4.341 4.593,4.295C4.641,4.253 4.704,4.264 4.762,4.318C4.809,4.361 4.858,4.401 4.91,4.438C4.954,4.457 4.982,4.499 4.982,4.547C4.982,4.587 4.961,4.625 4.927,4.647C4.914,4.66 4.905,4.676 4.901,4.694C4.898,4.745 4.862,4.788 4.812,4.798C4.768,4.811 4.72,4.794 4.694,4.756C4.66,4.715 4.661,4.655 4.695,4.614L4.705,4.593Z" style="fill:rgb(87,169,154);fill-rule:nonzero;"/>
        <path d="M2.953,1.14C3.01,1.144 3.057,1.188 3.065,1.244C3.08,1.31 3.088,1.378 3.105,1.444C3.113,1.471 3.128,1.495 3.15,1.513C3.197,1.543 3.216,1.601 3.197,1.653C3.182,1.702 3.133,1.733 3.083,1.727C3.027,1.727 2.98,1.685 2.973,1.63C2.971,1.614 2.963,1.599 2.952,1.587C2.83,1.492 2.842,1.355 2.842,1.226C2.842,1.169 2.895,1.144 2.953,1.14Z" style="fill:rgb(87,169,154);fill-rule:nonzero;"/>
        <path d="M4.437,5.176C4.411,5.206 4.389,5.251 4.357,5.261C4.315,5.27 4.272,5.264 4.235,5.243C4.204,5.221 4.18,5.191 4.164,5.156C4.122,5.08 4.083,5.002 4.049,4.923C4.042,4.908 4.039,4.892 4.039,4.875C4.039,4.833 4.063,4.794 4.101,4.776C4.117,4.769 4.134,4.764 4.152,4.764C4.195,4.764 4.234,4.789 4.253,4.828C4.268,4.853 4.28,4.881 4.294,4.907C4.326,4.964 4.36,5.02 4.391,5.078C4.406,5.105 4.418,5.134 4.437,5.176Z" style="fill:rgb(87,169,154);fill-rule:nonzero;"/>
        <path d="M5.342,3.863C5.34,3.962 5.27,4.02 5.194,3.995C5.104,3.966 5.016,3.928 4.932,3.883C4.894,3.866 4.87,3.828 4.87,3.786C4.87,3.769 4.874,3.752 4.882,3.737C4.9,3.696 4.941,3.67 4.986,3.67C5.004,3.67 5.022,3.674 5.039,3.683C5.118,3.712 5.196,3.746 5.271,3.785C5.3,3.806 5.324,3.833 5.342,3.863Z" style="fill:rgb(87,169,154);fill-rule:nonzero;"/>
        <path d="M3.2,4.911C3.21,4.854 3.217,4.795 3.232,4.738C3.244,4.685 3.296,4.651 3.349,4.661C3.403,4.661 3.447,4.706 3.447,4.76C3.45,4.857 3.449,4.954 3.443,5.051C3.436,5.106 3.389,5.147 3.334,5.147C3.288,5.147 3.247,5.118 3.231,5.076C3.217,5.022 3.206,4.967 3.2,4.911Z" style="fill:rgb(87,169,154);fill-rule:nonzero;"/>
        <path d="M2.663,5.606C2.672,5.563 2.686,5.488 2.703,5.414C2.709,5.393 2.718,5.374 2.73,5.356C2.756,5.307 2.815,5.285 2.866,5.304C2.919,5.323 2.949,5.378 2.936,5.432C2.922,5.514 2.906,5.595 2.889,5.676C2.882,5.734 2.833,5.778 2.775,5.778C2.769,5.778 2.763,5.777 2.757,5.776C2.695,5.766 2.658,5.714 2.663,5.606Z" style="fill:rgb(87,169,154);fill-rule:nonzero;"/>
        <path d="M2.016,3.789C2.001,3.815 1.983,3.84 1.962,3.863C1.905,3.916 1.843,3.964 1.783,4.014C1.748,4.048 1.695,4.054 1.653,4.03C1.609,4.009 1.585,3.958 1.599,3.911C1.608,3.875 1.627,3.841 1.654,3.814C1.715,3.762 1.78,3.714 1.849,3.673C1.927,3.627 2.018,3.682 2.016,3.789Z" style="fill:rgb(87,169,154);fill-rule:nonzero;"/>
        <path d="M2.284,1.627C2.282,1.73 2.188,1.787 2.119,1.742C2.031,1.688 1.963,1.607 1.925,1.512C1.901,1.457 1.923,1.392 1.976,1.363C2.03,1.338 2.094,1.357 2.127,1.407C2.164,1.456 2.205,1.502 2.241,1.551C2.257,1.575 2.272,1.601 2.284,1.627Z" style="fill:rgb(87,169,154);fill-rule:nonzero;"/>
        <path d="M4.537,3.584C4.456,3.665 4.387,3.676 4.334,3.619C4.314,3.598 4.303,3.569 4.303,3.54C4.303,3.507 4.317,3.476 4.341,3.454C4.4,3.402 4.468,3.419 4.538,3.504C4.625,3.424 4.691,3.414 4.743,3.473C4.785,3.521 4.78,3.596 4.732,3.638C4.673,3.688 4.605,3.67 4.537,3.584Z" style="fill:rgb(87,169,154);fill-rule:nonzero;"/>
        <path d="M1.511,1.959C1.556,1.969 1.621,1.98 1.684,1.999C1.736,2.011 1.772,2.057 1.772,2.11C1.772,2.172 1.721,2.223 1.659,2.223C1.649,2.223 1.64,2.222 1.631,2.22C1.572,2.212 1.513,2.201 1.456,2.187C1.397,2.179 1.353,2.129 1.353,2.07C1.353,2.065 1.353,2.06 1.354,2.054C1.363,1.994 1.418,1.955 1.511,1.959Z" style="fill:rgb(87,169,154);fill-rule:nonzero;"/>
        <path d="M3.603,2.195C3.587,2.304 3.544,2.352 3.47,2.343C3.407,2.335 3.36,2.277 3.367,2.213C3.378,2.134 3.434,2.106 3.535,2.119C3.562,2.073 3.593,2.029 3.627,1.988C3.642,1.974 3.68,1.975 3.705,1.98C3.756,1.992 3.791,2.038 3.791,2.089C3.791,2.099 3.79,2.108 3.788,2.117C3.771,2.189 3.719,2.211 3.603,2.195Z" style="fill:rgb(87,169,154);fill-rule:nonzero;"/>
        <path d="M4.093,2.223C3.999,2.16 3.975,2.092 4.023,2.029C4.045,2.001 4.08,1.984 4.116,1.984C4.144,1.984 4.172,1.994 4.193,2.013C4.217,2.036 4.23,2.067 4.23,2.1C4.23,2.141 4.21,2.179 4.176,2.201C4.207,2.241 4.233,2.284 4.254,2.329C4.257,2.361 4.247,2.392 4.227,2.416C4.206,2.44 4.176,2.455 4.143,2.455C4.115,2.455 4.088,2.444 4.068,2.424C4.008,2.37 4.015,2.304 4.093,2.223Z" style="fill:rgb(87,169,154);fill-rule:nonzero;"/>
        <path d="M4.02,1.712C4.134,1.727 4.178,1.762 4.175,1.837C4.175,1.894 4.13,1.943 4.073,1.947C4,1.954 3.96,1.915 3.94,1.819C3.814,1.793 3.777,1.763 3.781,1.689C3.783,1.634 3.825,1.589 3.88,1.583C3.951,1.574 3.989,1.608 4.02,1.712Z" style="fill:rgb(87,169,154);fill-rule:nonzero;"/>
        <path d="M2.32,4.716C2.35,4.641 2.385,4.567 2.423,4.495C2.452,4.449 2.512,4.434 2.559,4.461C2.611,4.486 2.636,4.547 2.616,4.601C2.598,4.66 2.579,4.718 2.56,4.776C2.544,4.831 2.488,4.865 2.431,4.855C2.37,4.843 2.328,4.785 2.336,4.724L2.32,4.716Z" style="fill:rgb(87,169,154);fill-rule:nonzero;"/>
        <path d="M3.961,3.355C3.947,3.383 3.928,3.407 3.905,3.428C3.845,3.468 3.781,3.502 3.716,3.532C3.7,3.54 3.684,3.544 3.666,3.544C3.608,3.544 3.56,3.496 3.56,3.438C3.56,3.399 3.581,3.363 3.616,3.344C3.681,3.305 3.75,3.27 3.82,3.241C3.889,3.213 3.959,3.263 3.961,3.355Z" style="fill:rgb(87,169,154);fill-rule:nonzero;"/>
        <path d="M4.645,3.078C4.661,3.07 4.675,3.061 4.688,3.05C4.728,3.008 4.792,3 4.84,3.031C4.885,3.059 4.904,3.117 4.883,3.166C4.865,3.218 4.812,3.25 4.757,3.242C4.734,3.242 4.712,3.25 4.694,3.265C4.656,3.307 4.593,3.318 4.543,3.291C4.496,3.265 4.474,3.21 4.49,3.159C4.505,3.103 4.556,3.073 4.645,3.078Z" style="fill:rgb(87,169,154);fill-rule:nonzero;"/>
        <path d="M4.934,1.842C4.847,1.841 4.783,1.755 4.825,1.691C4.875,1.621 4.935,1.56 5.004,1.51C5.018,1.501 5.035,1.496 5.052,1.496C5.083,1.496 5.112,1.513 5.127,1.541C5.149,1.578 5.154,1.622 5.141,1.662C5.093,1.723 5.038,1.779 4.978,1.828C4.966,1.839 4.943,1.839 4.934,1.842Z" style="fill:rgb(87,169,154);fill-rule:nonzero;"/>
        <path d="M1.473,2.954C1.527,2.961 1.571,2.998 1.589,3.049C1.606,3.098 1.583,3.152 1.536,3.172C1.474,3.201 1.41,3.223 1.345,3.24C1.339,3.24 1.334,3.241 1.329,3.241C1.268,3.241 1.219,3.191 1.219,3.131C1.219,3.099 1.232,3.069 1.256,3.048C1.326,3.012 1.399,2.981 1.473,2.954Z" style="fill:rgb(87,169,154);fill-rule:nonzero;"/>
        <path d="M0.971,3.698C0.989,3.616 1.115,3.474 1.186,3.472C1.225,3.471 1.262,3.487 1.288,3.515C1.308,3.551 1.31,3.593 1.294,3.63C1.26,3.689 1.216,3.741 1.163,3.783C1.128,3.804 1.086,3.808 1.048,3.793C1.015,3.778 0.996,3.731 0.971,3.698Z" style="fill:rgb(87,169,154);fill-rule:nonzero;"/>
        <path d="M3.79,4.226C3.741,4.222 3.698,4.19 3.679,4.145C3.661,4.1 3.671,4.049 3.706,4.016C3.724,3.989 3.745,3.963 3.766,3.938C3.797,3.913 3.835,3.878 3.868,3.88C3.91,3.885 3.948,3.909 3.97,3.945C3.98,3.984 3.975,4.026 3.956,4.062C3.937,4.101 3.911,4.136 3.879,4.165C3.851,4.188 3.821,4.209 3.79,4.226Z" style="fill:rgb(87,169,154);fill-rule:nonzero;"/>
        <path d="M5.267,5.065C5.268,5.157 5.185,5.221 5.117,5.184C5.056,5.147 5.003,5.099 4.96,5.042C4.948,5.026 4.942,5.006 4.942,4.986C4.942,4.954 4.958,4.924 4.985,4.906C5.023,4.869 5.085,4.868 5.125,4.903C5.164,4.933 5.2,4.965 5.233,5.001C5.248,5.021 5.259,5.042 5.267,5.065Z" style="fill:rgb(87,169,154);fill-rule:nonzero;"/>
        <path d="M1.555,4.286C1.555,4.286 1.555,4.286 1.555,4.286C1.616,4.286 1.665,4.336 1.665,4.396C1.665,4.419 1.658,4.442 1.644,4.46C1.608,4.51 1.564,4.553 1.513,4.587C1.496,4.597 1.476,4.602 1.457,4.602C1.396,4.602 1.347,4.553 1.347,4.492C1.347,4.491 1.347,4.49 1.347,4.489C1.373,4.388 1.453,4.31 1.555,4.286Z" style="fill:rgb(87,169,154);fill-rule:nonzero;"/>
        <path d="M3.868,1.373C3.884,1.317 3.905,1.262 3.929,1.209C3.957,1.158 4.02,1.137 4.072,1.161C4.127,1.185 4.154,1.248 4.133,1.304C4.123,1.343 4.113,1.382 4.099,1.42C4.083,1.477 4.024,1.513 3.966,1.5C3.91,1.483 3.87,1.432 3.868,1.373Z" style="fill:rgb(87,169,154);fill-rule:nonzero;"/>
        <path d="M1.277,2.419C1.297,2.42 1.317,2.422 1.337,2.426C1.39,2.434 1.429,2.48 1.428,2.534C1.434,2.587 1.397,2.637 1.343,2.644C1.291,2.652 1.238,2.649 1.187,2.637C1.14,2.625 1.106,2.582 1.106,2.533C1.106,2.523 1.107,2.512 1.11,2.502C1.126,2.44 1.176,2.412 1.277,2.419Z" style="fill:rgb(87,169,154);fill-rule:nonzero;"/>
        <path d="M4.182,5.75C4.16,5.784 4.132,5.814 4.1,5.839C4.056,5.862 4.002,5.848 3.975,5.808C3.927,5.754 3.911,5.68 3.933,5.612C3.952,5.574 3.985,5.545 4.026,5.532C4.073,5.518 4.123,5.545 4.138,5.592C4.156,5.644 4.17,5.697 4.182,5.75Z" style="fill:rgb(87,169,154);fill-rule:nonzero;"/>
        <path d="M3.073,3.284C3.04,3.321 3.019,3.365 2.986,3.376C2.947,3.388 2.905,3.381 2.871,3.359C2.833,3.325 2.804,3.283 2.785,3.236C2.763,3.185 2.786,3.124 2.835,3.1C2.881,3.071 2.941,3.082 2.974,3.125C3.01,3.176 3.043,3.229 3.073,3.284Z" style="fill:rgb(87,169,154);fill-rule:nonzero;"/>
        <path d="M2.076,2.251C2.171,2.252 2.242,2.309 2.24,2.383C2.238,2.443 2.188,2.491 2.128,2.491C2.126,2.491 2.124,2.491 2.122,2.491C2.021,2.49 1.954,2.441 1.953,2.366C1.953,2.366 1.953,2.365 1.953,2.364C1.953,2.302 2.004,2.25 2.067,2.25C2.07,2.25 2.073,2.251 2.076,2.251Z" style="fill:rgb(87,169,154);fill-rule:nonzero;"/>
        <path d="M5.532,4.156C5.626,4.161 5.701,4.227 5.695,4.3C5.689,4.358 5.64,4.404 5.581,4.404C5.576,4.404 5.571,4.403 5.566,4.403C5.487,4.403 5.42,4.343 5.41,4.265C5.41,4.204 5.46,4.155 5.52,4.155C5.524,4.155 5.528,4.155 5.532,4.156Z" style="fill:rgb(87,169,154);fill-rule:nonzero;"/>
        <path d="M3.382,3.169C3.394,3.089 3.464,3.03 3.545,3.032C3.605,3.034 3.654,3.084 3.654,3.145C3.654,3.146 3.654,3.147 3.654,3.149C3.639,3.228 3.572,3.287 3.492,3.291C3.431,3.289 3.381,3.238 3.381,3.177C3.381,3.174 3.381,3.172 3.382,3.169Z" style="fill:rgb(87,169,154);fill-rule:nonzero;"/>
        <g transform="matrix(0.0357929,-0.999359,0.999359,0.0357929,-0.606499,7.05782)">
            <circle cx="3.354" cy="3.843" r="0.115" style="fill:rgb(87,169,154);"/>
        </g>
        <g transform="matrix(0.999993,-0.00386432,0.00386432,0.999993,-0.0135454,0.0118092)">
            <circle cx="3.051" cy="3.513" r="0.115" style="fill:rgb(87,169,154);"/>
        </g>
        <g transform="matrix(0.0155113,-0.99988,0.99988,0.0155113,0.354675,5.51314)">
            <circle cx="2.977" cy="2.576" r="0.115" style="fill:rgb(87,169,154);"/>
        </g>
        <g transform="matrix(0.999998,-0.00186942,0.00186942,0.999998,-0.00370674,0.00588393)">
            <circle cx="3.144" cy="1.987" r="0.115" style="fill:rgb(87,169,154);"/>
        </g>
        <g transform="matrix(0.0158192,-0.999875,0.999875,0.0158192,-2.4359,6.29655)">
            <circle cx="1.981" cy="4.386" r="0.115" style="fill:rgb(87,169,154);"/>
        </g>
        <g transform="matrix(0.027803,-0.999613,0.999613,0.027803,0.659041,5.72073)">
            <circle cx="3.271" cy="2.522" r="0.115" style="fill:rgb(87,169,154);"/>
        </g>
        <g transform="matrix(0.999288,-0.037732,0.037732,0.999288,-0.0661701,0.17802)">
            <circle cx="4.683" cy="1.842" r="0.116" style="fill:rgb(87,169,154);"/>
        </g>
        <g transform="matrix(0.0737076,-0.99728,0.99728,0.0737076,2.11947,6.69822)">
            <circle cx="4.666" cy="2.208" r="0.115" style="fill:rgb(87,169,154);"/>
        </g>
        <g transform="matrix(0.0457378,-0.998953,0.998953,0.0457378,0.52699,4.66725)">
            <circle cx="2.706" cy="2.058" r="0.115" style="fill:rgb(87,169,154);"/>
        </g>
        <g transform="matrix(0.0307786,-0.999526,0.999526,0.0307786,-1.03321,8.19953)">
            <circle cx="3.711" cy="4.633" r="0.115" style="fill:rgb(87,169,154);"/>
        </g>
        <g transform="matrix(0.0399858,-0.9992,0.9992,0.0399858,2.86007,8.3861)">
            <circle cx="5.794" cy="2.705" r="0.115" style="fill:rgb(87,169,154);"/>
        </g>
        <g transform="matrix(0.999888,-0.014977,0.014977,0.999888,-0.0651917,0.0644614)">
            <circle cx="4.272" cy="4.385" r="0.115" style="fill:rgb(87,169,154);"/>
        </g>
        <circle cx="3.005" cy="4.752" r="0.115" style="fill:rgb(87,169,154);"/>
        <g transform="matrix(0.999423,-0.0339605,0.0339605,0.999423,-0.0916763,0.0892924)">
            <circle cx="2.583" cy="2.743" r="0.115" style="fill:rgb(87,169,154);"/>
        </g>
        <g transform="matrix(0.99991,-0.0133882,0.0133882,0.99991,-0.040967,0.0266224)">
            <circle cx="1.968" cy="3.073" r="0.115" style="fill:rgb(87,169,154);"/>
        </g>
        <g transform="matrix(0.99999,-0.00499,0.00499,0.99999,-0.014262,0.0232188)">
            <circle cx="4.647" cy="2.87" r="0.115" style="fill:rgb(87,169,154);"/>
        </g>
        <g transform="matrix(0.999936,-0.0113503,0.0113503,0.999936,-0.0421107,0.0456108)">
            <circle cx="3.997" cy="3.733" r="0.115" style="fill:rgb(87,169,154);"/>
        </g>
        <g transform="matrix(0.00475862,-0.999989,0.999989,0.00475862,2.62834,6.06955)">
            <circle cx="4.363" cy="1.714" r="0.115" style="fill:rgb(87,169,154);"/>
        </g>
        <g transform="matrix(0.0106678,-0.999943,0.999943,0.0106678,-1.37867,6.49422)">
            <circle cx="2.593" cy="3.944" r="0.115" style="fill:rgb(87,169,154);"/>
        </g>
        <g transform="matrix(0.0204116,-0.999792,0.999792,0.0204116,2.1688,7.79152)">
            <circle cx="5.061" cy="2.789" r="0.115" style="fill:rgb(87,169,154);"/>
        </g>
        <g transform="matrix(0.00630653,-0.99998,0.99998,0.00630653,-0.722428,7.78416)">
            <circle cx="3.555" cy="4.256" r="0.115" style="fill:rgb(87,169,154);"/>
        </g>
        <g transform="matrix(0.0437617,-0.999042,0.999042,0.0437617,1.69712,5.27226)">
            <circle cx="3.603" cy="1.75" r="0.115" style="fill:rgb(87,169,154);"/>
        </g>
        <g transform="matrix(0.00979428,-0.999952,0.999952,0.00979428,-3.13157,6.92619)">
            <circle cx="1.931" cy="5.044" r="0.115" style="fill:rgb(87,169,154);"/>
        </g>
        <g transform="matrix(0.0145459,-0.999894,0.999894,0.0145459,-1.90897,9.05236)">
            <circle cx="3.638" cy="5.495" r="0.115" style="fill:rgb(87,169,154);"/>
        </g>
        <g transform="matrix(0.999787,-0.0206564,0.0206564,0.999787,-0.0230948,0.071806)">
            <circle cx="3.464" cy="1.154" r="0.115" style="fill:rgb(87,169,154);"/>
        </g>
        <g transform="matrix(0.999751,-0.0222989,0.0222989,0.999751,-0.063235,0.0870187)">
            <circle cx="3.871" cy="2.879" r="0.116" style="fill:rgb(87,169,154);"/>
        </g>
        <g transform="matrix(0.999999,-0.00146346,0.00146346,0.999999,-0.0051536,0.00354138)">
            <circle cx="2.418" cy="3.521" r="0.115" style="fill:rgb(87,169,154);"/>
        </g>
        <g transform="matrix(0.0196581,-0.999807,0.999807,0.0196581,0.218973,6.11077)">
            <circle cx="3.226" cy="2.944" r="0.115" style="fill:rgb(87,169,154);"/>
        </g>
        <g transform="matrix(0.0135727,-0.999908,0.999908,0.0135727,-0.586009,5.49613)">
            <circle cx="2.493" cy="3.045" r="0.115" style="fill:rgb(87,169,154);"/>
        </g>
        <g transform="matrix(0.0171156,-0.999854,0.999854,0.0171156,3.2778,5.80672)">
            <circle cx="4.592" cy="1.236" r="0.115" style="fill:rgb(87,169,154);"/>
        </g>
        <g transform="matrix(0.999818,-0.0191034,0.0191034,0.999818,-0.0494002,0.0909873)">
            <circle cx="4.738" cy="2.631" r="0.115" style="fill:rgb(87,169,154);"/>
        </g>
        <g transform="matrix(0.0161577,-0.999869,0.999869,0.0161577,2.04249,9.412)">
            <circle cx="5.804" cy="3.668" r="0.115" style="fill:rgb(87,169,154);"/>
        </g>
        <g transform="matrix(0.00160518,-0.999999,0.999999,0.00160518,0.359746,5.01797)">
            <circle cx="2.693" cy="2.329" r="0.115" style="fill:rgb(87,169,154);"/>
        </g>
        <g transform="matrix(0.00338401,-0.999994,0.999994,0.00338401,0.624468,8.58687)">
            <circle cx="4.62" cy="3.98" r="0.115" style="fill:rgb(87,169,154);"/>
        </g>
        <g transform="matrix(0.00584856,-0.999983,0.999983,0.00584856,0.350349,8.14491)">
            <circle cx="4.272" cy="3.896" r="0.114" style="fill:rgb(87,169,154);"/>
        </g>
        <g transform="matrix(0.999881,-0.015437,0.015437,0.999881,-0.0303567,0.0820443)">
            <circle cx="5.299" cy="2.007" r="0.115" style="fill:rgb(87,169,154);"/>
        </g>
        <g transform="matrix(0.999958,-0.00917926,0.00917926,0.999958,-0.0381973,0.0411599)">
            <circle cx="4.465" cy="4.182" r="0.114" style="fill:rgb(87,169,154);"/>
        </g>
        <g transform="matrix(0.00728756,-0.999973,0.999973,0.00728756,0.832293,9.22084)">
            <circle cx="5.06" cy="4.191" r="0.115" style="fill:rgb(87,169,154);"/>
        </g>
        <g transform="matrix(0.999922,-0.0124692,0.0124692,0.999922,-0.0310319,0.0480773)">
            <circle cx="3.84" cy="2.513" r="0.114" style="fill:rgb(87,169,154);"/>
        </g>
        <g transform="matrix(0.9998,-0.0200062,0.0200062,0.9998,-0.0534376,0.0694772)">
            <circle cx="3.446" cy="2.705" r="0.114" style="fill:rgb(87,169,154);"/>
        </g>
        <circle cx="3.101" cy="4.155" r="0.115" style="fill:rgb(87,169,154);"/>
    </g>
    <g id="SvgjsG6079" transform="matrix(2.14541,0,0,2.14541,148.62,26.3079)">
        <path d="M5.539,18.713L5.539,27.559L1.378,27.559L1.378,4.437L7.965,4.437C8.323,4.437 8.681,4.437 9.067,4.465C11.713,4.465 13.725,6.835 13.752,9.425L13.752,10.583C13.752,11.713 13.725,12.87 13.725,14C13.697,15.819 12.732,17.39 11.41,18.217L14.441,27.559L10.197,27.559L7.413,18.713L5.539,18.713ZM7.854,7.799L5.539,7.799L5.539,15.626L8.13,15.626C8.957,15.626 9.315,14.965 9.398,14.248C9.453,13.421 9.508,12.567 9.508,11.74C9.508,10.886 9.453,10.059 9.398,9.232C9.288,8.268 8.791,7.799 7.854,7.799ZM24.666,17.032L20.256,17.032L20.256,24.418L26.926,24.418L26.926,27.559L16.095,27.559L16.095,4.437L26.926,4.437L26.926,7.579L20.256,7.579L20.256,13.945L24.666,13.945L24.666,17.032ZM38.473,4.437L42.689,4.437L42.689,27.559L38.363,27.559L33.264,13.532L33.264,27.559L29.048,27.559L29.048,4.437L33.512,4.437L38.473,17.831L38.473,4.437ZM57.764,22.599C57.737,25.244 55.753,27.559 53.052,27.559L45.418,27.559L45.418,4.437L53.052,4.437C55.753,4.465 57.764,6.835 57.764,9.48L57.764,22.599ZM53.548,22.544L53.548,9.563C53.548,8.543 52.749,7.799 51.922,7.799L49.745,7.799L49.745,24.252L51.894,24.252C52.804,24.252 53.548,23.453 53.548,22.544ZM68.816,17.032L64.406,17.032L64.406,24.418L71.076,24.418L71.076,27.559L60.245,27.559L60.245,4.437L71.076,4.437L71.076,7.579L64.406,7.579L64.406,13.945L68.816,13.945L68.816,17.032ZM77.387,18.713L77.387,27.559L73.225,27.559L73.225,4.437L79.812,4.437C80.17,4.437 80.528,4.437 80.914,4.465C83.56,4.465 85.572,6.835 85.599,9.425L85.599,10.583C85.599,11.713 85.572,12.87 85.572,14C85.544,15.819 84.58,17.39 83.257,18.217L86.288,27.559L82.044,27.559L79.261,18.713L77.387,18.713ZM79.702,7.799L77.387,7.799L77.387,15.626L79.977,15.626C80.804,15.626 81.162,14.965 81.245,14.248C81.3,13.421 81.355,12.567 81.355,11.74C81.355,10.886 81.3,10.059 81.245,9.232C81.135,8.268 80.639,7.799 79.702,7.799ZM96.513,17.032L92.103,17.032L92.103,24.418L98.773,24.418L98.773,27.559L87.942,27.559L87.942,4.437L98.773,4.437L98.773,7.579L92.103,7.579L92.103,13.945L96.513,13.945L96.513,17.032ZM105.084,18.713L105.084,27.559L100.922,27.559L100.922,4.437L107.509,4.437C107.867,4.437 108.226,4.437 108.612,4.465C111.257,4.465 113.269,6.835 113.297,9.425L113.297,10.583C113.297,11.713 113.269,12.87 113.269,14C113.241,15.819 112.277,17.39 110.954,18.217L113.986,27.559L109.741,27.559L106.958,18.713L105.084,18.713ZM107.399,7.799L105.084,7.799L105.084,15.626L107.674,15.626C108.501,15.626 108.86,14.965 108.942,14.248C108.997,13.421 109.052,12.567 109.052,11.74C109.052,10.886 108.997,10.059 108.942,9.232C108.832,8.268 108.336,7.799 107.399,7.799Z" style="fill:rgb(85,81,81);fill-rule:nonzero;"/>
    </g>
    <g id="SvgjsG6080" transform="matrix(2.11765,0,0,2.11765,396.987,27.073)">
        <path d="M7.965,8.02C6.559,8.02 6.669,9.343 6.642,10.362C6.642,11.106 6.697,11.878 6.724,12.484L1.791,12.484L1.791,9.122C1.791,6.504 3.831,4.161 6.504,4.161L8.35,4.161C8.599,4.161 8.874,4.161 9.15,4.134C12.016,4.134 13.945,6.476 13.945,9.26C13.945,12.595 12.484,14.91 10.776,16.949C8.984,19.099 7.138,20.67 6.394,23.095C6.311,23.37 6.256,23.674 6.228,23.977L13.532,23.977L13.532,27.559L1.268,27.559L1.268,25.768C1.268,25.465 1.24,25.162 1.24,24.859C1.157,19.154 5.429,16.618 7.772,13.229C8.543,12.043 9.012,10.748 9.012,9.343C9.012,8.24 8.516,8.02 7.992,8.02L7.965,8.02ZM2.343,11.933L6.146,11.933C6.118,11.465 6.091,10.996 6.091,10.528C6.091,9.15 6.091,7.469 7.965,7.469C9.26,7.469 9.563,8.516 9.563,9.343C9.563,11.685 8.433,13.449 6.973,15.13C6.504,15.681 6.036,16.205 5.539,16.756C3.61,18.878 1.791,21.11 1.791,24.666L1.791,27.008L12.98,27.008L12.98,24.528L5.622,24.528L5.677,23.894C5.925,21.827 7.193,20.201 8.516,18.685C8.957,18.162 9.425,17.666 9.894,17.114C11.74,15.02 13.394,12.732 13.394,9.26C13.394,6.862 11.685,4.685 9.315,4.685C8.516,4.685 7.744,4.713 6.973,4.713L6.504,4.713C4.189,4.685 2.343,6.78 2.343,9.122L2.343,11.933ZM22.764,4.465C23.15,4.465 23.536,4.437 23.922,4.437C26.512,4.437 28.689,6.752 28.689,9.315L28.689,21.193C28.689,21.607 28.717,22.048 28.717,22.461C28.744,25.189 26.705,27.559 23.922,27.559L16.095,27.559L16.095,4.465L22.764,4.465ZM23.922,27.008C26.374,27.008 28.166,24.941 28.166,22.461L28.138,9.315C28.138,7.028 26.209,4.988 23.922,4.988L16.646,5.016L16.646,27.008L23.922,27.008ZM20.614,7.799L22.681,7.799C23.536,7.799 24.307,8.626 24.307,9.425C24.307,13.752 24.335,18.051 24.335,22.378C24.335,23.922 23.26,24.307 21.965,24.307C21.717,24.307 21.441,24.28 21.166,24.28L20.614,24.28L20.614,7.799ZM21.166,8.35L21.166,23.729L22.681,23.729C22.792,23.729 22.929,23.674 23.04,23.646C23.453,23.425 23.839,22.957 23.784,22.268C23.756,21.579 23.756,20.89 23.756,20.256L23.756,9.425C23.756,8.819 23.205,8.406 22.681,8.35L21.166,8.35Z" style="fill:rgb(85,81,81);fill-rule:nonzero;"/>
    </g>
</svg>
